<svg id="Layer_1" data-name="Layer 1" xmlns="http://www.w3.org/2000/svg" viewBox="0 0 512 512"><defs><style>.cls-1{fill:#3f1f35;}.cls-2{fill:#0d8e4e;}</style></defs><title>512px</title><path class="cls-1" d="M287.84,1c-2,1.13-3.74,2.24-5.56,3.07-5.52,2.53-9.48,6.84-12.88,12.14C257.13,35.26,250.09,56.62,244.68,79c-9.38,38.75-13.41,78.28-16.79,118-3.32,38.91-2.76,77.89-3.3,116.85-.05,3.67.31,7.34.58,11,.22,3-.66,5-3.28,6.26-2.39,1.13-4.66,2.56-7.24,4-.73-5.13.1-10.13-1-15.3-2.78.38-5.38.6-7.92,1.12-1.88.38-1.74,2.22-1.72,3.8.07,4.34.2,8.67.24,13,0,2.79-5.21,8-7.69,7.75-1.68-.2-1.62-1.69-1.63-3-.05-5.25-.08-10.5-.06-15.75,0-5-.24-5.27-4.63-5-13.89,1-27.78,2-41.68,2.83-3.14.18-3.78,1.54-3.62,4.65.67,12.72,1.17,25.44,1.69,38.16.12,2.86-4.85,7.69-7.4,7.22-1.51-.27-1.72-1.7-1.79-3-.17-3.27-.1-6.57-.39-9.83-.19-2.17.91-5.3-3-5.34-3.68,0-4.34,1.92-4.08,5.43.33,4.44.26,8.92.35,13.38.05,2.72-3.87,6.76-6.26,6.43-2-.28-1.89-2-1.94-3.59-.44-14.83-1-29.65-1.33-44.48-.81-32.82-.72-65.64.69-98.44.75-17.41,1.47-34.79,3.53-52.17,2.5-21.06,4.8-42.16,8.09-63.09a360.93,360.93,0,0,1,13.62-57.81,192.89,192.89,0,0,1,15.77-35.25,46.19,46.19,0,0,1,14.38-15.73,31,31,0,0,1,16-5.25C220.48,4.4,248,2.61,275.6.86c2.26-.15,4.51-.68,6.76-1C284.13-.49,285.87-.72,287.84,1ZM194.65,275.15c.13-1.09.27-2.18.37-3.28.29-3.14.28-6.31.26-9.46l-.09-18.53c0-1.3-.12-2.83-1.12-3.54a3.39,3.39,0,0,0-2.24-.35c0,.61-38,2.7-41.67,2.9-3.32.19-4.67,2.9-4.72,6.22l-.9,63.2a4.25,4.25,0,0,0,.65,2.86c.76.85,2,.77,3.09.63,13.92-1.81,27.93-2.91,41.94-3.32,1.62,0,3.59-.33,4.21-2a5.26,5.26,0,0,0,.13-2.24c-.59-6.87-.59-13.78-.58-20.68,0-3.11,0-6.22.31-9.32C194.38,277.23,194.51,276.19,194.65,275.15Zm4.57-104.8c-3.06.3-5.77.63-8.49.81-12.21.78-24.41,1.59-36.63,2.22-2.66.14-3.8,1.07-4,4.11-1.17,17.52-2.75,35-3.6,52.55-.16,3.29,1.05,4,3.74,4,13.92,0,27.68-2.36,41.54-3.33,3.39-.23,3.66-2.64,3.86-5.37,1-12.93,2-25.86,2.84-38.81C198.8,181.27,199.77,176,199.22,170.35ZM208.07,110a10.26,10.26,0,0,0-2.11-.37c-14.36,1-28.72,2.09-43.1,2.94-3.45.2-4.78,1.8-5.26,5.39-2,14.66-4.06,29.29-6.21,43.92-.38,2.57.37,3.43,2.61,3.15,14.66-1.86,29.48-1.15,44.14-3.19,2.12-.3,3.36-1.06,3.34-3.6,0-9.25,2.11-18.18,3.41-27.23C205.9,124.07,207,117.14,208.07,110Zm-2.59-8.61c3.19,1.09,4.55-.87,5.18-4,2.62-12.94,6-25.64,9.85-38.2.83-2.75,0-3.7-2.47-3.55Q197,57,176,58.36a5.39,5.39,0,0,0-5.34,4.32c-3.74,12.87-7.26,25.8-9.82,39-.44,2.3,0,3.15,2.23,3,6.7-.43,13.41-.8,20.13-1C190.64,103.41,198,102.26,205.48,101.4ZM174.67,50.22a2.64,2.64,0,0,0,2.53,1.07c12.79-.79,25.59-1.51,38.38-2.41,8.67-.61,8.74-.68,12.32-9.32C232.64,28.13,238.26,17.4,247,9a1.69,1.69,0,0,0,.52-2c-2.11-.93-4.29.4-6.46.48-12.09.44-24.18,1.11-36.27,1.71-3,.15-5.9.67-8.27,3.15C186.34,23,181.24,37.12,174.67,50.22ZM204,301.66H204c0,.78,0,1.57,0,2.35-.25,8.33-.24,8.28,7.38,7.37,2.14-.25,2.93-1.36,2.92-3.52,0-4.58-.07-9.15-.06-13.72,0-2.19-.85-2.94-2.88-2.84-7.36.39-7.36.33-7.31,8.4ZM214.27,273v-1.18c0-8.4,0-8.35-7.38-7.64-1.81.17-2.63,1-2.68,2.89q-.15,6.3-.28,12.59c0,1.9.69,2.76,2.59,2.81,7.57.22,7.75.1,7.75-8.29Zm.18-26.65h.16v-5.51c0-1.11-.21-2-1.33-2.48-4.34-1.75-8.06.75-8.36,5.63-.1,1.7-.27,3.39-.37,5.1-.39,7.22.89,8.21,7.23,6a3.59,3.59,0,0,0,2.68-4C214.41,249.46,214.45,247.89,214.45,246.32Zm-8.31-23.9c-.51,8,1.05,9.57,6.87,7a4,4,0,0,0,2.64-3.75c.12-3.13.26-6.25.36-9.38,0-1.27-.25-2.56-1.68-2.39-2.47.29-5.22.23-7.26,1.49-1.76,1.09-.54,4.1-.87,6.24C206.17,221.89,206.16,222.16,206.14,222.42ZM135.87,335.55c0-2.25,0-4.21,0-6.17.09-3.11-1.72-3.15-3.82-3.09s-3.31.89-3.12,3.53q.48,7.05.64,14.1c0,2.26.33,3.9,2.91,3.72s4.24-.92,4-4.16C136.22,340.74,136.05,338,135.87,335.55Zm0-29.23h0c0-2,.1-3.93,0-5.88-.1-1.63.69-4.26-2.1-3.86-2.26.33-5.33-.08-5.08,4.29.22,3.91.22,7.84.1,11.76-.08,2.73.56,4.19,3.37,4.06,2.57-.12,4.11-.84,3.8-4.11C135.72,310.52,135.88,308.41,135.88,306.32Zm71.33-101.38c1.73,1,3.19.51,4.6.66,3.28.36,5-1.18,5.05-4.82,0-1,.29-2.07.39-3.1.61-7,.61-6.91-5.84-6.24-1.64.18-3.19.24-3.37,2.55C207.75,197.6,207.49,201.22,207.21,204.94Zm-71.33,73.47h.06c0-1.58.09-3.16,0-4.72s.75-4.07-2-4.08c-2.55,0-4.88.58-5,4.18s0,7.08-.3,10.6c-.24,3.09.94,3.67,3.55,3.7,2.94,0,3.86-1.26,3.73-4.18C135.81,282.08,135.88,280.24,135.88,278.41Zm83-109.06-6.19-.33a1.86,1.86,0,0,0-2.21,1.53c-.46,3.82-1.64,7.55-1.59,11.58,2.73.81,5.21-.1,7.69,0,1.16,0,1.54-1,1.61-2.16C218.39,176.58,218.62,173.2,218.87,169.35Zm-88.6,60c0,.07,0,.86,0,1.65-.12,4.33,1.15,5.39,4.92,4.12a3.23,3.23,0,0,0,2.34-3.1c.19-2.75.44-5.5.48-8.25,0-1.85.53-4.32-2.29-4.33-2.53,0-4.9.49-5.11,4.09C130.51,225.18,130.41,226.88,130.27,229.3Zm-.92,30.47c5.2,1.4,6.16,1.27,6.64-1.26.92-4.84.51-9.74.73-15-2.63.81-5.89-1.33-6.51,2.4C129.45,250.48,129.59,255.2,129.35,259.77Zm86-98.8c1.31-.36,3.46.63,4.4-1.15,1.7-3.22,1.79-7.18,1.45-10.58-.24-2.44-3.52-.62-5.38-1.07-2.4-.57-3.18.84-3.32,3.21a38.94,38.94,0,0,1-.69,5.39C210.94,161.06,211,161.23,215.35,161Zm-.83-23.64c0,1-.36,2.09.78,2.75,2.51,1.44,7.4-1.28,7.85-4.39.11-.77.24-1.54.4-2.31,1.22-6.07.41-6.89-5.27-5.58a3.7,3.7,0,0,0-3.14,3.67C215,133.43,214.73,135.38,214.52,137.33ZM133.9,182.49c-.35,5.07.34,5.92,4,5.17,1.7-.35,2.43-1.38,2.59-3.19.2-2.09.52-4.16.82-6.23.61-4.12.13-4.59-3.61-4.29-2.36.18-3.52,1.16-3.49,3.83C134.22,179.35,134,180.92,133.9,182.49Zm5.8,17.41c.17-2,.08-3.74-2.45-3.62-2.18.1-4.81-.77-5,3.14-.11,2.86-.27,5.72-.4,8.58-.1,2.13.6,3.08,2.75,2.76,2.44-.37,4-1.46,4.29-4.28C139.15,204.28,139.44,202.09,139.7,199.9Zm77.49-80.41c7.82,1.31,8.92.41,9.76-7.18.17-1.59.7-3.64-1.32-3.69-2.21-.06-5.28-1.19-6.49,1.6S217.83,116.21,217.19,119.49Zm3.72-19.4c6.36,2,7.89,1.07,9.39-5.48.38-1.63,1.58-3.8-.84-4.62-2.19-.73-4.74-.89-6,1.83A26.35,26.35,0,0,0,220.91,100.09Zm-74.49,35.47c.21-3-1-3.75-3.5-3-4,1.27-4.06,4.86-4.26,8.43-.1,1.71-1.24,3.82,1.39,4.32,2.3.45,4.38-.22,5.14-2.9A64.45,64.45,0,0,0,146.42,135.56Zm78.93-53.5a13.87,13.87,0,0,0,2,.37c4.71.19,8.18-3.71,8-8.91a1.81,1.81,0,0,0-1.09-1.79c-2.13-1-6.05.51-7,2.9A20.36,20.36,0,0,0,225.35,82.06Zm-89.51,83.28c5.71,1.49,6.09,1.23,6.83-4.4.2-1.55.44-3.1.77-4.62.36-1.68.58-3.43-1.6-3.31-1.88.11-4.69-1.31-5.18,2.33C136.22,158.66,136.1,162,135.84,165.34Zm14-51.3c-6.77-1.63-9.47,1.81-8.43,10.38C149.53,125.14,147.91,125.2,149.82,114Zm-2.69-8.18c4,0,4.75-1,5.75-6.74.31-1.79.56-3.54-1.4-4.19s-3.91-.43-4.81,2c-.71,1.92-1.19,3.95-1.74,5.94C144.29,105.15,145.17,106.07,147.13,105.86ZM157.7,77c-4.88-1.27-6.54-.19-8,5-.51,1.85-2,4.24.89,5.29,2.68,1,4.77-.11,5.6-3.19C156.83,81.87,157.18,79.55,157.7,77Zm4.87-17c-5.48-1-8.87,1.92-9.13,7.52-.08,1.67.82,1.9,2,1.94C159.78,69.62,162.15,66.57,162.57,60Zm68,3.59c4.95,2.31,9.66-1.17,9.39-6.89-.09-1.93-1.21-1.94-2.49-1.86C233.23,55.06,231.68,57,230.53,63.57Zm7.8-15.89c3.68.12,5.57-1.63,7.16-6.79.28-.93,1.07-1.86.17-2.9s-2-.74-3-.47c-2.55.66-6,5.15-6.18,8.09C236.34,47,236.78,47.91,238.33,47.68Zm-78.71,3.91c5,2.4,8.09-.52,9.12-8.65C162.39,42.19,161.45,44,159.62,51.59Zm95-29.73c-4.53-1.53-10,2.48-10.18,6.9-.06,1.47.72,1.91,2.09,1.79C251.36,30.11,252.52,25.8,254.59,21.86Zm-78.2,4.68c-5.08-.4-8.76,3-9.87,8.92C171.86,36.32,175.69,32.93,176.39,26.54Zm-.18-8c4.87,1.71,9.9-1.69,13.43-8.66C183.84,10.66,180.17,14.19,176.21,18.58Zm91-12.5a10.92,10.92,0,0,0-12.45,8.24C260.71,15,263,9.14,267.25,6.08Z" transform="translate(-0.27 0.4)"/><path class="cls-1" d="M236.6,238c3.26,1,6,3.2,8.72,5.23,2.25,1.69,3.48,1.33,4.76-1.31,3.39-7,3.48-6.91-2.79-10.55a46.72,46.72,0,0,0-5.37-3.18c-4.34-1.8-5.52-5.17-5-9.93.42-4.24,1.12-4.77,4.67-2.56,4.07,2.53,8.19,5,12.15,7.67,2.5,1.71,3.9,1.41,5.24-1.63q9.33-21,19-41.92c1-2.28.73-3.43-1.35-4.61-10.09-5.76-20.1-11.7-30.18-17.49-4.93-2.84-5.23-3.64-3.91-9.59.58-2.6,1.63-2.9,3.55-1.74,3,1.83,6.17,3.52,9.16,5.45,2.82,1.82,3.84-.28,5-2.38,1.31-2.36.25-3.57-1.64-4.59-3.44-1.85-6.84-3.79-10.24-5.74a10.25,10.25,0,0,1-2.68-1.92c-2-2.35-2.54-5.22-.83-7.9s3.72-.69,5.41.28c32.68,18.82,65.1,38.12,96.47,59.47,39.59,26.94,77.74,56,112.48,90.15,15.58,15.32,30,31.77,41.46,51.08,5,8.5,9.15,17.47,11,27.58A35.3,35.3,0,0,1,509,379.62q-16.75,36.31-33.37,72.72c-2.14,4.68-4.1,9.47-6.15,14.2a38.51,38.51,0,0,1-4.5,8.28,5.31,5.31,0,0,1-.48-4.9c1.76-5.76.31-11.18-1.19-16.57-2.62-9.39-7.23-17.68-12.3-25.67-12.9-20.33-29.15-37.34-46-53.53-31.52-30.29-65.82-56.53-101.43-80.74-20.37-13.85-40.85-27.48-62-39.82C235.12,249.85,234,246.1,236.6,238Zm51-56.24a11.26,11.26,0,0,0-3.2,4.93c-5.61,13-11.45,26-17.77,38.6-1.79,3.57-1.08,5.1,1.94,7,17,10.78,34,21.58,50.58,33.13.67.47,1.31,1.2,2.41.86a14.89,14.89,0,0,0,2.79-4.36c6-13.25,12-26.52,18.15-39.71,1.26-2.7.85-4.19-1.51-5.69-8.6-5.48-17.1-11.12-25.64-16.69Zm109,76.91a17.16,17.16,0,0,0-4.74-5c-12.31-9.82-25.12-18.83-37.7-28.21-2.75-2.05-3.73-1.18-5,1.7-6,13.54-12.08,27.07-18.44,40.42-1.69,3.54-1,5.08,1.79,7.16,13.12,9.66,26.47,19,39.11,29.41,2.74,2.26,3.86.65,4.91-1.62Q386.54,280.63,396.54,258.66Zm22.18,85.25c.63-1.31,1.26-2.56,1.84-3.84,6.11-13.36,12.11-26.77,18.37-40,1.36-2.87,1.29-4.54-1-6.68-10.36-9.8-21.37-18.68-32-28.08-2.33-2.06-3.69-1.43-4.9,1.41-5.84,13.8-12.14,27.34-18.71,40.73-1.24,2.52-1,4.27,1.15,6,11.08,9,21.42,19,32.05,28.63C416.34,342.82,417,343.85,418.72,343.91ZM455,383.05c6.83-14.79,13.87-30.09,20.94-45.37,1.09-2.33-.21-3.65-1.5-5.08q-12.48-13.91-25-27.82c-1-1.08-1.84-2.43-3.45-2.58-.26.48-.53.92-.74,1.38-6.7,14.64-13,29.48-20.33,43.8-1.05,2.07-.48,3.38.86,4.8C435.46,362.38,445.11,372.6,455,383.05Zm27-40.54a6.35,6.35,0,0,0-2.56,3.09c-6,13.12-11.85,26.3-18,39.3-1.87,3.93-1.54,6.75.8,10.31,7.58,11.61,15.3,23.24,16.89,38.06,0,.18.35.32.64.58,1.11-.66,1.39-2,1.9-3.11,5-10.87,10-21.76,15-32.62,6-13,6-13,1.37-26.69C494.36,360.73,487.83,352,482,342.51ZM261.21,239.86c-2,1.35-2.33,3.6-3.37,5.33-1.68,2.79-1.14,4.78,1.57,6.38s5.61,3.53,8.33,5.44c2.18,1.54,3.85,2.28,5.49-1,2.69-5.35,2.87-6.95-.27-9C269.16,244.56,265.23,242.3,261.21,239.86Zm23,14.78c-2.73.67-2.62,3.54-3.78,5.35-1.74,2.75-.88,4.45,1.63,5.89s4.69,3.11,7,4.72c3.87,2.67,4,2.67,5.89-1.91,2.34-5.69,3.62-5.06-2.66-9.19-1.95-1.28-3.89-2.56-5.86-3.79A19.85,19.85,0,0,0,284.24,254.64Zm28.44,31.83c5.57-9.06,5.54-9.21-2-14.48-1.21-.84-2.46-1.61-3.64-2.48-2-1.48-3.3-.88-4.15,1.47-.49,1.33-1.07,2.62-1.63,3.92-.79,1.79-.56,3.23,1.07,4.34C305.73,281.58,309.12,284,312.68,286.47ZM286.42,161c-4.25-2.49-8.25-4.82-12.24-7.18-5.18-3.06-5.18-3.08-7.7,2.81a5.46,5.46,0,0,0,0,1.51c3.31,2,6.75,4.1,10.18,6.2C283,168.19,283,168.2,286.42,161Zm45.22,138.68c1-2.07,1.81-3.79,2.61-5.53.57-1.26,1.59-2.7.61-4-2.64-3.43-6.27-5.49-9.71-7.78a1.29,1.29,0,0,0-1,.1c-3.13,1.49-3.9,8.64-1.12,10.78S328.52,297.37,331.64,299.68ZM294.58,166.26c-2.08.84-2.21,3.23-3.22,4.85-.86,1.37.28,2.16,1.18,2.76,3.56,2.36,7.18,4.63,10.75,7,1.57,1,3.07,1.83,4-.73.76-2.07,3.07-4.23-.2-6.22-3.64-2.22-7.23-4.53-10.85-6.78C295.75,166.79,295.19,166.57,294.58,166.26ZM343,295.32c-1.4,2.55-2.6,4.62-3.68,6.75a2.53,2.53,0,0,0,.42,3.21c2.84,2.31,5.34,6.14,8.83,6.07,2.48-.05,3.14-4.44,4.67-6.85.1-.16,0-.48,0-1C350.4,300.44,346.62,298.44,343,295.32ZM330.53,190.58a4,4,0,0,0-2-2.87c-3-2-5.92-3.88-8.86-5.85-1.89-1.27-3.27-.92-4.42,1.23s-1.73,4,.73,5.56c2.86,1.85,5.63,3.9,8.47,5.79,1.06.7,2.26,2.26,3.45.89A25.5,25.5,0,0,0,330.53,190.58Zm29.88,118.55c-4.9,4.8-4.9,8.13-.08,12.06,1.7,1.39,3.42,2.73,5.13,4.09,5.26-7.83,5.18-8.48-1.52-13.58C362.77,310.81,361.57,310,360.41,309.13ZM338.15,194.25c-.49.84-.83,1.38-1.14,1.94-2.51,4.52-2.45,4.7,1.77,7.54,2,1.38,4,2.83,6,4.29,1.35,1,2.81,2.18,3.89-.09.92-1.93,2.94-4.26.4-6.23C345.61,199,341.84,196.73,338.15,194.25Zm38.09,127.44c-1.17,2.41-2.17,4.35-3.07,6.33-.64,1.41-.69,2.83.57,3.9,2,1.68,4,3.3,6.05,4.92,1,.8,1.73.29,2.47-.56,3.44-3.95,3.27-6.83-.66-10.14C379.89,324.71,378.18,323.3,376.24,321.69ZM369.4,216.74c-3.49-3.59-7.57-5.92-11.31-8.87-3.66,6.64-3.66,6.64,1.45,10.48l2.08,1.55c4.54,3.36,4.54,3.36,7.36-2A11.37,11.37,0,0,0,369.4,216.74ZM391.67,335c-5.39,7-4.24,10.9,4,15.16,1.57-1.63,2.25-3.92,3.42-5.85a2.06,2.06,0,0,0-.41-3C396.37,339.23,394.1,337.17,391.67,335ZM377.09,221.65c-1,1.33-1.85,2.54-2.77,3.69a2.37,2.37,0,0,0,.32,3.7c2.94,2.37,5.65,5.14,9.16,6.7,1.64-1.84,2.45-3.93,3.51-6.32Zm17,13c-4.2,5.67-4.18,5.79.69,9.74,1,.78,1.86,1.64,2.82,2.41,2.92,2.33,3.94,1.9,5-1.81a4.59,4.59,0,0,0-1.85-5.36C398.59,238,396.4,236.45,394,234.7Zm11.8,113.13c-4.44,8.25-3.29,12.09,4,14.66,4.24-5.75,4.2-6.66-.62-11.39C408.18,350.06,407.1,349,405.84,347.83Zm1.43-93.94L415.9,262c1.31-2.95,4.77-4.87,1.87-8.15-2.12-2.4-4.81-4.2-7.53-6.51C409.16,249.68,408.28,251.63,407.27,253.89Zm18.1,6.82-3.38,6.2c2.95,2.57,5.43,5.33,8.8,7.31,1-2.7,3.93-4.73,2.1-7.24A21.38,21.38,0,0,0,425.37,260.71Zm-6.25,101c-4.56,6.93-4,9.11,3.26,13.58C428.47,369.25,424.71,365.56,419.12,361.7Zm20.93-88.47c-4.07,5.49-4,6.19.32,10.33.27.25.52.54.81.76,1.36,1,2.6,3.34,4.46,1,1.55-2,1.86-4.35.15-6.37S442,275.13,440.05,273.23Zm-8,101c-4.48,4.69-4.55,6.35-.76,11.32,1.13,1.48,2.29,3.73,4.23,1.87,1.6-1.54,3.3-3.7,1.31-6.44C435.26,378.72,433.69,376.47,432.08,374.2Zm28.06-80.1c-.08-1.46-5-7-6.16-7-1-.08-1.47.6-2,1.35-2.87,3.89-.16,6.1,2.05,8.54,1,1.11,1.94,2.83,3.52,1.89S459.53,295.73,460.14,294.1Zm-17,95c-3.64,5.38-2.91,8.76,2.77,12.93C450.18,397.68,449.24,393.29,443.13,389.06ZM469,312.48c4.29-5.14,4.28-5.64-.37-10.32-1-1-1.94-2.94-3.5-1.38-1.27,1.28-2.54,3.21-1.47,5.19A17.25,17.25,0,0,0,469,312.48Zm8.88.26c-3.72,4.89-3.78,5.55-.48,10,.95,1.29,1.77,3.87,3.75,2.33a4.83,4.83,0,0,0,1.32-6.52A22.77,22.77,0,0,0,477.9,312.74Zm10.58,13.87c-4.05,6.42-3.86,7.66,2.07,13.39C494.87,335.41,494.64,333.92,488.48,326.61ZM464.92,431.85c3.88-5.38,3.51-8.66-1.58-14.11C459.58,424.19,459.66,424.91,464.92,431.85Zm-8.87-16.13c3.85-4.7,4.26-6.28-2.07-12.89C449.88,407.71,450.55,411.88,456.05,415.72Zm43.28-60.05c4.42-3.63,3.69-7.31-1.32-13.05C494.55,346.7,494.68,348.1,499.33,355.67ZM472,435.27c-4,4.32-4,9.76-.54,16.64C475.85,446.65,472.14,441.37,472,435.27Zm33.15-75.61c-2.2,7-2.08,10,.52,15.69C508.77,371.16,508.66,365,505.11,359.66Z" transform="translate(-0.27 0.4)"/><path class="cls-1" d="M301.65,306.23c-1.38,4.08-4.87,5.08-7.74,6.75-2.55,1.48-3,2.61-1,5.27,4.39,5.92,4.25,6,10.06,2l4.56-3.15c5.58-3.8,8.82-3,12.93,3.11-.37,1.61-1.77,2-2.86,2.7-4.33,2.82-8.66,5.61-13,8.34-1.8,1.13-2.36,2.46-1.12,4.45q12.43,20,24.86,40c1.43,2.32,2.83,1.63,4.53.44,9.69-6.79,19.42-13.51,29.13-20.27,2.95-2.05,8.75-.4,10.33,2.95.74,1.56-.39,2.14-1.27,2.74-3.26,2.21-6.52,4.42-9.84,6.52-1.75,1.11-2.56,2.23-1.06,4.31,1.31,1.81,2.14,4.52,5,2.44,3.88-2.85,7.71-5.78,11.63-8.58,2.19-1.56,7.92,1.5,8.17,4.35.16,1.77-1.3,2.36-2.39,3.1q-17.43,11.79-34.88,23.56c-44.8,30.07-90.88,57.5-139.31,80-21.85,10.14-44.08,19.34-67.09,25.76a301.51,301.51,0,0,1-40.66,8.09c-9,1.2-18,.15-26.8-2.14-8.31-2.17-14.71-7.46-19.45-15.18q-9.91-16.17-19.78-32.38c-11-18-21.39-36.41-32.87-54a6,6,0,0,1-1.37-3.14c.84-.92,1.39.08,1.74.51,6.82,8.38,16.11,10,25.5,10.69,17.31,1.33,34.2-2.1,50.87-6.7,52.91-14.62,101.86-39.81,149.83-67.56,19.93-11.53,39.55-23.64,58.57-36.9C293.38,299.66,295.24,300,301.65,306.23Zm-64.88,67.14c8.81,14.53,17.38,28.59,25.88,42.7,1.5,2.49,3.12,1.74,4.92.64,7.12-4.34,14.28-8.6,21.37-13q15.33-9.48,30.59-19.11c1.23-.78,3.25-1.35,1.78-3.74q-12.48-20.21-24.94-40.41c-1.21-2-2.49-2-4.24-.88C274,351.05,255.78,362.44,236.77,373.37ZM179.55,403.9C186.88,416,194,428,201.26,439.83c6.53,10.7,3.78,9.21,14,4.68,13.32-5.89,26.08-13.13,38.77-20.51,1.47-.85,3.27-1.57,1.73-4.06q-12.4-20-24.77-40c-1.19-1.93-2.65-1.83-4.37-.91C211.14,387.22,195.62,395.41,179.55,403.9Zm20.27,48.27c-9.06-14.87-17.7-29-26.32-43.2-1.22-2-2.63-1.75-4.35-.91-12.8,6.27-25.87,11.79-39.1,16.86-2.46.94-2.53,2.12-1.2,4.3q11.93,19.66,23.73,39.42c1.07,1.79,2.34,2.43,4.25,1.68,6.42-2.51,12.93-4.8,19.29-7.5C183.91,459.52,191.59,455.89,199.82,452.17Zm-53,21.17a8.29,8.29,0,0,0-.45-1.67q-12.57-20.61-25.15-41.21c-1.21-2-2.62-1.77-4.38-1.12-6.24,2.29-12.44,4.73-18.92,6.18s-13.05,3-19.65,4.53a5.9,5.9,0,0,0,.32,1.46Q91,462.24,103.41,482.94c1.34,2.22,3.15,2.82,5.61,2.1,6.72-1.94,13.5-3.6,20.24-5.45A107.61,107.61,0,0,0,146.8,473.34ZM97,487.27a4.78,4.78,0,0,0-1.07-4c-7.13-12-14.38-23.87-21.41-35.92-2.59-4.44-5.82-6.1-10.6-5.16-6.62,1.3-13.3,2-20,.92-6-.95-12.12-.81-17.91-3.76a16.53,16.53,0,0,0,1.9,4.28c6.51,10.86,13.47,21.42,19.41,32.64,4.2,7.94,10.27,10.83,17.91,11.63,1.43.15,2.86.35,4.3.45C78.7,489.05,87.87,488.29,97,487.27ZM268.48,329.71c6.19,10.94,4.95,9.75,13.12,4.36,8.74-5.77,9-3.32,2.22-13.55-.12-.19-.4-.26-.73-.46Zm-22,13.32c1.44,2.37,2.75,4.36,3.91,6.45s2.55,2.49,4.48,1.25c3.8-2.44,7.64-4.8,11.59-7.28-1.4-2.37-2.69-4.56-4-6.73-.91-1.5-2.18-2.2-3.69-1.3C254.72,337.83,250.73,340.38,246.47,343Zm-20.06,12.12c4.4,9.68,4.45,9.69,12.37,4.85.42-.26.85-.5,1.27-.74,5-2.95,5-2.95,1.79-7.92-.28-.43-.58-.84-.84-1.28-1.25-2.11-2.67-2.66-4.79-1.17C233.1,351.07,229.82,353,226.41,355.15Zm124.66,20.1c-4.69,2.22-14.35,9.15-15.86,11.32,3,6.23,3,6.23,8.64,2.68a23.33,23.33,0,0,0,2.14-1.42c3-2.43,6.77-3.77,9.1-7.37Zm-127.82-7.61c.13-1.82-3.81-7.46-5.37-7.19-4.06.7-7.45,3.2-10.87,5.54a1.66,1.66,0,0,0-.37,1.05c-.08,1.3,4.29,7.31,5.41,7.48.91.14,10.67-5.28,11-6.13A3.73,3.73,0,0,0,223.25,367.64Zm-25.54,2.92c-1.81.94-3.54,1.81-5.25,2.74-6,3.26-5.93,3.19-2,9.32,1.45,2.24,2.72,2.43,4.7,1.06,1.71-1.19,3.64-2,5.36-3.16,1.17-.8,3.56-1.07,2.47-3.45C201.86,374.46,200.61,371.66,197.71,370.56Zm129,20.39c-4.23,2.82-7.89,5.61-11.84,7.77-3.24,1.78-1.93,3.63-.91,5.95,1.22,2.78,2.76,2.3,4.63,1s3.76-2.33,5.53-3.67c2.3-1.73,5.25-2.62,6.7-5.73ZM304,405.67c-3.6,2.2-7,4.36-10.49,6.41-2.8,1.66-3.18,3.62-.85,6.08.67.71,1.06,1.77,2.31,2.12,2.76-1.74,5.67-3.53,8.54-5.39C308.39,411.68,308.47,410.58,304,405.67ZM168.53,385.46c1.29,2.2,2.23,3.84,3.2,5.44.63,1.06,1,2.42,2.5,2.53s9.27-3.78,9.5-4.92c.73-3.6-2.31-5.08-3.72-7.48-.11-.19-.4-.26-.81-.5Zm117.62,38.85c-3.55-6.23-3.54-6.21-8.74-2.86-1.75,1.13-3.55,2.17-5.32,3.26-1.21.76-2.88,1.28-1.78,3.45,1,1.93,2,4.72,4.37,3.66C278.79,430,283,428,286.15,424.31ZM165.37,395.68c-.88-2.2-2-4.51-4.23-5.8-1-.6-8.84,2.7-9.4,4-1,2.31,1.15,3.39,1.89,5,1.31,2.87,3.13,3.58,5.75,1.75a28.77,28.77,0,0,1,4.26-2A2.83,2.83,0,0,0,165.37,395.68Zm84.37,42.71c1.42,2.15,2.23,4.23,4.15,5.49,2.14-1.21,4.27-2.37,6.36-3.61,5.71-3.39,5.8-4,1.46-9.21-.15-.18-.42-.23-.79-.43C257.29,433.06,253.06,434.64,249.74,438.39ZM133.85,401.31c2.22,7.54,3.84,8.45,10,5.93.23-.1.45-.2.66-.31,1.4-.72,4-.91,2.74-3.39s-2-6.28-5.54-5.52C139,398.6,136.45,400.18,133.85,401.31Zm96.82,46.24c.76,3.1,1.61,6,4.65,5.3a25.73,25.73,0,0,0,10.29-5.28c-.53-1-1-1.64-1.24-2.35-1.38-3.35-3.33-4-6.24-2C235.82,444.83,233.3,446.05,230.67,447.55Zm-13.8,15.07c2.12-1.07,4.19-2.08,6.23-3.15,3.65-1.91,3.82-3.42.9-6.5a2.82,2.82,0,0,0-3.87-.69c-1.79,1-3.67,1.88-5.43,3-1.11.68-3.19.92-2.19,3.17C213.39,460.42,214.73,462.12,216.87,462.62Zm-86.79-50.9c-2.82-7.59-3.21-7.79-9.82-5.15-.11.05-.23.07-.34.11-1.44.62-3.47,1.3-2.38,3.37,1.19,2.28,2,6.19,5.26,5.27A18,18,0,0,0,130.08,411.72Zm63.7,53.58c3.26,6.37,8.61,7,13.1,1.8a2,2,0,0,0,.44-2.1c-1-3.94-3.13-5-6.52-3.21C198.56,463,196.29,464.05,193.78,465.3Zm-93.21-50.83c3.14,6.87,4.09,7.45,9.26,5.41,1.35-.53,3.67-.85,2.85-3.12s-1.74-5.64-5-5.17A13.12,13.12,0,0,0,100.57,414.47Zm76.29,58.29c3,6.25,3,6.25,8.43,4.18.79-.3,1.57-.62,2.37-.89,2.74-.94,2.55-2.77,1-4.72s-3.15-2.74-5.39-1.61C181.26,470.76,179.17,471.68,176.86,472.76Zm-33.73,12.05c2.75,7.31,7.39,8.06,12.4,2.19-.73-1.11-1.47-2.28-2.25-3.41-.64-.91-1.37-2.34-2.52-1.53C148.49,483.67,145.72,483.46,143.13,484.81Zm17-5.18c.26.63.45,1.23.74,1.78.83,1.55,1.38,4,3.15,3.88a15.51,15.51,0,0,0,7.66-3c.6-.43.48-1.43.28-2.21-.65-2.56-3.57-4.29-5.93-3.37C164,477.46,161.9,478.08,160.09,479.63ZM84,419.36a14.75,14.75,0,0,0,3.52,5.26c1.07,1,7.19.46,8.08-.83,1.56-2.29-.43-3.83-1.34-5.48s-2.62-1.66-4.17-1.17C88.17,417.75,86.28,418.53,84,419.36ZM80,427c-2.07-5.1-4.12-6.38-8.35-5.26-1.37.36-3.74.15-3.2,2.58s1.55,5.39,4.61,5A13.71,13.71,0,0,0,80,427Zm58.91,66.38c-1.7-5.14-6.78-6.89-10.78-4a1.79,1.79,0,0,0-.82,1.92c.39,2.79,3.16,5,5.73,4.39A15.68,15.68,0,0,0,138.87,493.39ZM63.1,430.61c-1.94-6.67-6.14-8.14-11.39-4.25C54.42,432.37,55.82,432.92,63.1,430.61Zm31,65.28c1.33,5.56,5.83,7.88,10.24,5.61,1.92-1,1.58-2.23.38-3.65C101.72,494.33,98.08,495.2,94.11,495.89Zm28.16,2c-.12-5.93-5.76-6.85-11.5-3.56C112.49,500.06,115.78,500.66,122.27,497.92Zm-87.59-71c2.11,5.28,5.31,6.12,11.88,4.77C45.17,426.33,39,423.87,34.68,426.88Zm23.66,65.79c1.28,5,8.54,9.28,13.42,8.1C68.74,495.16,63.93,493.39,58.34,492.67Zm30.78,9.62c-1.81-4.78-6.75-7.31-10.58-5.57-1.74.78-1.08,1.93-.29,3.08C80.47,503.05,84,503.92,89.12,502.29ZM15.5,421.84c1.6,5.28,7,8.42,12.85,7.79C26.61,426.16,24.54,424.89,15.5,421.84Z" transform="translate(-0.27 0.4)"/><path class="cls-1" d="M332,461.8c1,2.32-.67,3.24-.69,5.2,2.76,1.59,6.09,3.56,9.13,2.43,2.84-1.06,4-4.84,4.68-8.11-1.3-1.55-2.66-.81-3.91-.82-.83,0-1.77.17-2.12-1s.44-1.67,1.07-2.27c3.57-3.43,7.28-5.81,12.36-3.65,3.78,1.6,8,1.69,11.78,3.44,2.28,1.05,3.13-1.15,3.95-2.92,4.91-10.65,10.12-21.15,14.63-32,4.86-11.7,13-21.07,18.36-32.38,1-2.15,2.67-2.57,4.44-.85,2.28,2.2,5.13,3.84,6.26,7.34-1.43.93-2.64.1-3.87-.17s-2.63-.76-3.87,0c-1.59.94-3.44,2.07-3.34,4.24s2.22,2.1,3.65,2.5c4.77,1.31,5.14,1,8.18-5.33a2.58,2.58,0,0,1,2.95,1.66c2.15,5.21,7,7.23,10.39,10.94,1.08,1.19,2.54,2.12,2.34,4.38-2.63,1-5.36.31-8-.11-7-1.11-14-2.38-21-3.7-2-.38-3.44,0-4.42,2.18-6.55,14.59-13.17,29.14-19.74,43.71a12.78,12.78,0,0,0-.54,2.11c-.21.8,15.38,3.1,16.52,3.29,6.82,1.13,13.74,2.79,20.62,3.1,3.87.18,6.22-1.15,8-5,4.73-10.45,9.77-20.73,14.13-31.39.73-1.79.79-5,3.88-3.64,2.54,1.1,3.52,4.44,2.23,7.27-3,6.69-6.24,13.29-9.26,20-1.79,3.95-4.19,7.58-5.49,12.12,11,2,20.39-2.1,29.44-7.92.4.58.84.93.95,1.39.87,3.55.68,7.08.56,10.78-.29,9.53-4.52,15.3-12.15,18.78a66.12,66.12,0,0,1-21.66,5.35c-11.35,1-22.48-1.07-33.68-2.59-23.76-3.22-46.8-10-69.91-16.44a6.48,6.48,0,0,1-4.19-3.38Zm25,12.53c1.75.11,5.25-4.33,5.28-7.2,0-3.09-2.34-1.67-3.71-2.11-.57-.18-1.15-.31-1.73-.46-3.54-.92-6.75,1.39-7.15,5.66s3,3,5,3.67A16.65,16.65,0,0,0,357,474.33Zm15.87,4.1c2.48.23,6.31-3.57,6.1-6.83-.26-4.13-4.18-2.82-6.48-3.71-2.06-.8-5.92,3.67-5.62,6.77C367.22,478.63,371,477.06,372.82,478.43Zm10.65,1.3c7.33,3.13,12,.35,12.25-7.1C388.25,470,385.42,471.57,383.47,479.73Zm28.7-4.62c-7.59-2.42-8.86-1.69-12.36,7.12C408.44,484.45,410.93,483,412.17,475.11ZM429,475c-9.36-1-8.26-1.46-12.17,7.91C423.12,485.8,426.31,483.79,429,475Zm4.53,7.42c5.24,1.83,11.72-3.33,12.5-9.95C439.28,472.25,436.17,474.73,433.52,482.4Z" transform="translate(-0.27 0.4)"/><path class="cls-1" d="M300.74,43.24c-5.7-9.62-11.19-18-20.15-22.65-1.64-.86-1.93-2.26-.57-3.78.59-.65,1.23-1.26,1.87-1.85,2-1.87,10.86-6,12.86-6.14,5.45-.3,10.07,2,14.27,5.51,7.65,6.44,13.17,14.78,17.86,23.9,12.49,24.28,20.58,50.41,27.37,77.1,2.46,9.71,5.51,19.25,6.89,30.23a204.18,204.18,0,0,1-16.3-12.77c1.23-1.87,3.12-1.2,4.55-2.51-.73-2.8-1.46-5.66-2.23-8.52A2.07,2.07,0,0,0,345,120c-2.48.15-5-.22-7.29.94-.79,2.73,2.38,4.52.82,7.74-4.33-2.57-9.39-3.71-10.7-10.21-.82-4.09-2.37-8-3-12.12-.68-4.32-2.89-4.63-6.16-4.3-16.38,1.63-32.77,3-49.24,2.18-5.4-.27-10.79-.58-16.19-.7-2.67,0-3.75-1.36-3.42-4.15s.23-6,1.77-8.65a5,5,0,0,1,3.17,2.74c2.13,5.24,2.12,5.24,7.26,4.11.43-3.06-1.14-5.54-2.2-8.1-.73-1.77-2.53-1.7-4.15-1.37-1.2.25-2.52.45-3.32-.78-.95-1.46.08-2.76.78-3.92a26.57,26.57,0,0,1,2.33-3c.49-.59,1.14-1.29.67-2-3-4.76,1.2-8.58.92-13,2.63-.32,3.11,1.65,3.77,3.24a226.22,226.22,0,0,1,8.91,24.44c.79,2.76,2,4.24,4.82,4.17,14.52-.37,29-1.46,43.49-2.67a3.26,3.26,0,0,0,2.41-1c0-2.75-1.39-5.14-2.16-7.72A228.22,228.22,0,0,0,306,54.09c-1.19-2.55-2.66-3.58-5.34-3.5-10.68.33-21.32,1.35-32,2.38a15.5,15.5,0,0,1-2.15.12c-1.71-.09-4.34.63-4.39-1.91s1.28-5.13,4.27-5.38c5.39-.45,10.78-.86,16.16-1.26C288.37,44.11,294.21,43.71,300.74,43.24Zm26.33,40.92c2.33,10.58,2.88,11,11.13,8.81C339.2,84.61,335.35,81.45,327.07,84.16Zm5.67,18.39c0,2.35,1,4.46,1.64,6.66.87,3.06,6.31,4.47,8.55,2.34a2.21,2.21,0,0,0,.68-1.69C343.79,102.26,339.26,99.16,332.74,102.55Zm-4.09-26.67c4.74-.16,5-.64,3.25-5.49a17.86,17.86,0,0,0-1-2.52c-1.08-1.94-7.91-2.57-9.13-.86a2,2,0,0,0-.34,1C321.2,72.19,324.73,76,328.65,75.88ZM314.54,49.62c-.17,2.94,1.74,4.58,2.4,6.77s7.19,3.34,8.78,1.6a2.23,2.23,0,0,0,.45-1c.61-3.11-3.1-8.05-6-7.93C318.38,49.12,316.62,49.4,314.54,49.62ZM310,26.29c-2-6.69-7.67-9.46-14.69-7.11C299.13,24.13,302.62,29.56,310,26.29Zm9.13,15.21c-.89-3.32-2-6.71-5.14-7.86-2.15-.8-5-1-6.86,1.53C310,42.73,311.71,43.68,319.11,41.5Z" transform="translate(-0.27 0.4)"/><path class="cls-1" d="M90.22,394.64c-1.09-2.36.25-3.46,1.07-4.62,3.32-4.65,3.35-4.62-.54-9.38-2.44,1.33-3.65,4-5.11,6.25-2.13,3.35,2.13,4.81,2.21,7.57-3.53,2.91-5.1,3.2-8.35,1.3-3.21,4.64-8.38,4.43-13.15,6,0-2.49,1.18-4.07,2.35-5.67,5.08-7,10.13-14,15.26-20.93,1.46-2,1.92-3.72.52-6Q72,348.7,59.6,328.17a4.59,4.59,0,0,0-.75-.78c-1.53.55-2.31,1.88-3.18,3.1-6.81,9.66-13.56,19.39-20.47,29-2.4,3.33-2.73,6.11-.34,9.82,6.08,9.43,11.77,19.16,17.61,28.77,1.05,1.73,2.2,3.42,2.37,5.59-4.94,2.4-5.91,2-8.77-2.8q-7.82-13.2-15.74-26.34a18.12,18.12,0,0,0-1.26-1.69c-1.22-.08-1.65.68-2,1.57-3.29,8.81-7.74,17.26-6.88,27.34.22,2.55-.83,3.77-3.26,2.7a17.75,17.75,0,0,1-6.39-4.29c-1.28-1.44-2.06-3.57-4.59-2.95-.93.24-1.56-1-2-2-2.86-6.6-4-13.39-2.26-20.63,2.74-11.71,7.67-22.29,13.69-32.31,13.79-22.92,30.44-43.21,48-62.7,4.13-4.58,8.19-9.23,12.29-13.84a4.42,4.42,0,0,1,3.42-2.1c-.25,7.17-1,14.12-1.94,21-1.7.29-2.25-1.09-3.48-1.37-2.33,1.94-5.75,3.47-6.63,6.58-1,3.37,2.4,5.52,3.93,8,2.74-.63,2.61-4.61,5.43-4.48,2.16,4.68,1.57,10.4-1.49,14.06-2.92,3.48-5.8,7-8.88,10.33-2,2.16-2.05,4-.51,6.51,7.47,12.21,15,24.41,22.17,36.8,4.89,8.4,7.58,18.09,12.49,26.52.67,1.15.65,2.43-.51,3.08A37.82,37.82,0,0,1,90.22,394.64Zm-29-98.05c-2.55.92-3.72,3-5.15,4.71-2.52,3-2.12,5.24,1.33,8.88C60,313,61.23,310,62.5,308.46c4.41-5.25,3.91-3.53.57-9.27C62.57,298.32,61.9,297.57,61.19,296.59ZM48.51,310.14c-1.37,1.73-2.5,3.08-3.54,4.5a7.19,7.19,0,0,0,1.1,10.17,2.07,2.07,0,0,0,3.17-.11c4.5-4.2,4.76-5.92,1.38-11.35C50,312.39,49.38,311.46,48.51,310.14Zm-11.08,15c-6.24,5.11-6.49,8.49-1.07,14.6C43,336.32,43.34,332,37.43,325.18ZM26.85,355.36c6.34-8.16,6.32-9.55,0-15.64C20.71,348.54,20.47,345.33,26.85,355.36ZM12,387.62c4-6.81,3.47-10.83-2-16.6C6.72,381,7.12,384.19,12,387.62Zm5.95-32.78c-5.39,6.11-5,11.74.69,14.82C23.53,361.7,23.65,363.17,17.93,354.84Z" transform="translate(-0.27 0.4)"/><path class="cls-1" d="M236.31,470.54c.14-2,1.69-2.37,2.94-3,48.66-24.77,95-54,140.05-85.88,2.52-1.78,4.95-3.71,7.36-5.65,2.17-1.74,4.28-1.73,6.17.3s1,3.92-.1,6c-19.84,37.35-48.86,62.91-85.35,78.4-15.12,6.42-31.06,9.67-47.36,10.71-6.95.45-13.86-.05-20.79.14C238.19,471.61,237,471.78,236.31,470.54Z" transform="translate(-0.27 0.4)"/><path class="cls-1" d="M398.68,219.33c-1.84.22-2.95-.89-4.1-1.79-42.33-33.13-87.33-61.35-133.66-87.12-3.95-2.2-7.8-4.63-11.81-6.69-2.4-1.24-3.5-2.73-2.94-5.77.6-3.25,2.73-2.81,4.72-2.79a158.77,158.77,0,0,1,133.57,76.34c4.5,7.58,9.47,14.84,13.28,22.9C398.45,215.89,399.43,217.32,398.68,219.33Z" transform="translate(-0.27 0.4)"/><path class="cls-1" d="M118.05,190.16c1.93,1.16,1.66,2.7,1.52,4.33A1158.67,1158.67,0,0,0,116,337.25c.54,14,1.19,28,1.87,42.05.09,1.86.11,3.63-1.2,5.14-2.26,2.6-4.43,2.4-6-.71-15.22-30.39-23.78-62.66-22.32-97.56,1.22-29.17,8.28-56.57,21.91-81.81C112.81,199.67,115.4,195,118.05,190.16Z" transform="translate(-0.27 0.4)"/><path class="cls-2" d="M235.39,293c0-8.12,0-16.25,0-24.37,0-3.77.86-4.32,3.8-2.49,13.21,8.2,26.39,16.47,39.61,24.66,2.37,1.47,2,2.88.26,4.46a14,14,0,0,1-1.82,1.25Q259.15,308.12,241,319.74c-1.41.9-2.91,2.48-4.57,1.49s-1-3.32-1-5.07c-.06-7.73,0-15.46,0-23.19Z" transform="translate(-0.27 0.4)"/></svg>