<svg id="Layer_1" data-name="Layer 1" xmlns="http://www.w3.org/2000/svg" viewBox="0 0 180 180"><defs><style>.cls-1{fill:#3f1f35;}.cls-2{fill:#0d8e4e;}</style></defs><title>Icon-60@3x</title><path class="cls-1" d="M101.58.85c-.71.39-1.32.78-2,1.08a10.78,10.78,0,0,0-4.53,4.26C90.78,12.9,88.3,20.41,86.4,28.28c-3.29,13.62-4.71,27.51-5.89,41.49-1.17,13.68-1,27.38-1.16,41.08,0,1.29.11,2.58.21,3.87a2,2,0,0,1-1.16,2.2c-.84.39-1.63.9-2.54,1.41-.26-1.81,0-3.56-.34-5.38-1,.13-1.89.21-2.78.39-.67.14-.62.78-.61,1.34,0,1.52.07,3,.09,4.57,0,1-1.83,2.82-2.71,2.72-.59-.07-.57-.59-.57-1,0-1.85,0-3.7,0-5.54s-.09-1.86-1.63-1.75c-4.88.35-9.77.72-14.65,1-1.1.06-1.33.54-1.27,1.64.23,4.47.41,8.94.59,13.41,0,1-1.7,2.7-2.6,2.54-.53-.1-.61-.6-.63-1.06-.06-1.15,0-2.31-.14-3.46-.07-.76.32-1.86-1-1.87s-1.53.67-1.44,1.91c.12,1.56.1,3.13.13,4.7,0,1-1.36,2.38-2.2,2.26s-.67-.7-.68-1.26c-.16-5.21-.34-10.43-.47-15.64-.29-11.54-.26-23.07.23-34.6.27-6.12.52-12.23,1.24-18.34.88-7.41,1.69-14.83,2.84-22.18A127.83,127.83,0,0,1,52,22.36,68,68,0,0,1,57.53,10a16.21,16.21,0,0,1,5.06-5.53A10.9,10.9,0,0,1,68.2,2.59C77.89,2.05,87.58,1.42,97.27.8A21.39,21.39,0,0,0,99.65.43,2.06,2.06,0,0,1,101.58.85ZM68.82,97.23c.05-.38.1-.76.14-1.15.1-1.1.09-2.22.09-3.33l0-6.51c0-.46,0-1-.39-1.24a1.19,1.19,0,0,0-.79-.13c0,.22-13.35.95-14.65,1s-1.64,1-1.66,2.19l-.31,22.22a1.42,1.42,0,0,0,.23,1,1.17,1.17,0,0,0,1.08.23,145.81,145.81,0,0,1,14.75-1.17c.57,0,1.26-.12,1.48-.69a1.76,1.76,0,0,0,0-.79c-.2-2.42-.2-4.85-.2-7.27a32.58,32.58,0,0,1,.11-3.28C68.73,98,68.78,97.6,68.82,97.23Zm1.61-36.84c-1.08.11-2,.22-3,.29-4.29.27-8.58.56-12.87.78-.94,0-1.34.37-1.41,1.44-.41,6.16-1,12.31-1.27,18.48,0,1.15.37,1.41,1.32,1.41,4.89,0,9.73-.83,14.6-1.17,1.2-.08,1.29-.93,1.36-1.89.34-4.55.72-9.09,1-13.64A35.61,35.61,0,0,0,70.43,60.39Zm3.1-21.21a3.38,3.38,0,0,0-.74-.13c-5.05.34-10.1.73-15.15,1-1.21.07-1.68.64-1.85,1.9q-1,7.73-2.18,15.44c-.13.9.13,1.2.92,1.1,5.15-.65,10.36-.4,15.52-1.12.74-.1,1.18-.37,1.17-1.26,0-3.25.74-6.39,1.2-9.58C72.77,44.12,73.16,41.68,73.53,39.18Zm-.9-3c1.12.39,1.59-.3,1.81-1.39.93-4.55,2.12-9,3.46-13.43.3-1,0-1.3-.86-1.25q-7.4.48-14.79.94a1.88,1.88,0,0,0-1.87,1.52c-1.32,4.53-2.55,9.07-3.45,13.72-.16.81,0,1.11.78,1.06,2.36-.15,4.72-.28,7.08-.37C67.41,36.86,70,36.45,72.63,36.15Zm-10.84-18a.93.93,0,0,0,.89.38c4.5-.28,9-.53,13.49-.85,3-.21,3.08-.24,4.34-3.28,1.66-4,3.63-7.79,6.71-10.75A.6.6,0,0,0,87.4,3c-.74-.33-1.51.14-2.27.17-4.25.16-8.5.39-12.75.6a4,4,0,0,0-2.91,1.11C65.89,8.6,64.1,13.56,61.79,18.16Zm10.32,88.39h0c0,.28,0,.55,0,.83-.08,2.93-.08,2.91,2.6,2.59.75-.09,1-.48,1-1.24,0-1.61,0-3.22,0-4.82,0-.77-.3-1-1-1-2.58.14-2.58.12-2.57,3Zm3.61-10.08v-.42c0-3,0-2.93-2.59-2.68a.89.89,0,0,0-.94,1c0,1.48-.07,3-.1,4.43,0,.66.24,1,.91,1,2.66.07,2.72,0,2.72-2.92Zm.06-9.37h.06V85.16c0-.39-.07-.71-.47-.87a2,2,0,0,0-2.93,2c0,.6-.1,1.19-.13,1.79-.14,2.54.31,2.89,2.53,2.1a1.27,1.27,0,0,0,1-1.4C75.77,88.2,75.78,87.65,75.78,87.1Zm-2.92-8.41c-.18,2.82.37,3.37,2.42,2.47a1.4,1.4,0,0,0,.93-1.32c0-1.1.09-2.2.12-3.3,0-.44-.09-.9-.59-.84a6.09,6.09,0,0,0-2.55.53c-.62.38-.19,1.44-.31,2.19C72.87,78.51,72.87,78.6,72.86,78.69Zm-24.7,39.78c0-.79,0-1.48,0-2.17,0-1.09-.61-1.11-1.35-1.08s-1.16.31-1.1,1.24c.12,1.65.2,3.3.23,5,0,.8.12,1.37,1,1.31s1.5-.32,1.4-1.46C48.29,120.3,48.23,119.33,48.16,118.47Zm0-10.28h0c0-.69,0-1.38,0-2.06s.24-1.5-.74-1.36c-.8.11-1.88,0-1.79,1.51.08,1.37.08,2.76,0,4.13,0,1,.2,1.47,1.18,1.43s1.45-.3,1.34-1.44C48.11,109.67,48.17,108.93,48.17,108.19ZM73.24,72.55a3.18,3.18,0,0,0,1.61.23c1.16.13,1.75-.41,1.78-1.69,0-.37.1-.73.14-1.09.21-2.44.21-2.43-2.06-2.19-.57.06-1.12.08-1.18.89C73.43,70,73.34,71.24,73.24,72.55ZM48.16,98.38h0c0-.55,0-1.11,0-1.66s.27-1.43-.7-1.43-1.72.2-1.75,1.47,0,2.49-.11,3.73c-.08,1.08.33,1.29,1.25,1.29s1.36-.44,1.31-1.47C48.14,99.67,48.16,99,48.16,98.38ZM77.34,60l-2.18-.12a.66.66,0,0,0-.78.54,31.41,31.41,0,0,0-.56,4.07,9.46,9.46,0,0,0,2.71,0c.41,0,.54-.35.56-.76ZM46.19,81.12s0,.3,0,.58c0,1.52.4,1.89,1.73,1.45a1.14,1.14,0,0,0,.82-1.09c.07-1,.15-1.94.17-2.9,0-.65.19-1.52-.81-1.53s-1.72.18-1.79,1.44C46.27,79.67,46.24,80.27,46.19,81.12Zm-.32,10.71c1.82.49,2.16.44,2.33-.44a37.67,37.67,0,0,0,.26-5.27c-.93.29-2.07-.47-2.29.84A41.75,41.75,0,0,0,45.87,91.83ZM76.1,57.09c.46-.13,1.21.22,1.54-.4A6.64,6.64,0,0,0,78.15,53c-.08-.86-1.23-.22-1.89-.38-.84-.2-1.12.3-1.17,1.13a12.19,12.19,0,0,1-.24,1.9C74.55,57.12,74.58,57.19,76.1,57.09Zm-.3-8.31c0,.36-.12.74.28,1,.88.51,2.6-.45,2.76-1.54,0-.28.08-.55.14-.82.43-2.13.14-2.42-1.86-2A1.31,1.31,0,0,0,76,46.72C76,47.41,75.88,48.1,75.8,48.78ZM47.46,64.66c-.12,1.79.12,2.08,1.41,1.82a1.08,1.08,0,0,0,.91-1.12c.07-.74.18-1.47.29-2.19.21-1.45,0-1.61-1.27-1.51-.83.06-1.24.41-1.23,1.35C47.58,63.56,47.5,64.11,47.46,64.66Zm2,6.12c.06-.71,0-1.31-.86-1.27S47,69.24,46.9,70.62l-.15,3c0,.75.22,1.08,1,1a1.53,1.53,0,0,0,1.51-1.51C49.31,72.32,49.41,71.55,49.5,70.78ZM76.74,42.51c2.75.46,3.14.15,3.43-2.52.06-.56.25-1.28-.46-1.3s-1.86-.42-2.28.56A16.46,16.46,0,0,0,76.74,42.51Zm1.31-6.82c2.23.69,2.77.38,3.3-1.93.13-.57.55-1.33-.3-1.62s-1.66-.31-2.1.64A9.18,9.18,0,0,0,78.05,35.69ZM51.86,48.16c.08-1-.37-1.32-1.23-1-1.41.44-1.42,1.7-1.5,3,0,.6-.43,1.34.49,1.52a1.41,1.41,0,0,0,1.81-1A24,24,0,0,0,51.86,48.16ZM79.61,29.35a4.1,4.1,0,0,0,.7.13,2.78,2.78,0,0,0,2.81-3.13.64.64,0,0,0-.38-.63,2.1,2.1,0,0,0-2.46,1A7.21,7.21,0,0,0,79.61,29.35ZM48.14,58.63c2,.53,2.14.43,2.4-1.54.08-.55.16-1.09.28-1.63s.2-1.21-.57-1.16-1.65-.46-1.82.82S48.24,57.47,48.14,58.63Zm4.92-18c-2.38-.57-3.33.63-3,3.65C53,44.5,52.39,44.52,53.06,40.6Zm-1-2.88c1.39,0,1.67-.33,2-2.37.11-.63.2-1.24-.49-1.47a1.2,1.2,0,0,0-1.69.7c-.25.68-.42,1.39-.61,2.09S51.42,37.8,52.11,37.72Zm3.72-10.14c-1.72-.45-2.3-.07-2.8,1.75-.18.66-.69,1.5.31,1.87a1.4,1.4,0,0,0,2-1.13C55.52,29.29,55.64,28.47,55.83,27.58Zm1.71-6c-1.93-.34-3.12.68-3.21,2.65,0,.58.29.66.71.68C56.56,25,57.39,23.91,57.54,21.59Zm23.89,1.26c1.74.81,3.4-.41,3.3-2.42,0-.68-.43-.68-.87-.66C82.38,19.86,81.83,20.55,81.43,22.85Zm2.74-5.59c1.3,0,2-.57,2.52-2.38.1-.33.37-.65.06-1s-.71-.26-1.07-.17a4,4,0,0,0-2.17,2.85C83.47,17,83.63,17.35,84.17,17.26ZM56.5,18.64c1.76.85,2.84-.18,3.2-3C57.47,15.34,57.14,16,56.5,18.64ZM89.89,8.19a2.89,2.89,0,0,0-3.58,2.42c0,.52.25.67.73.63C88.75,11.09,89.16,9.57,89.89,8.19ZM62.39,9.83c-1.78-.13-3.08,1.08-3.46,3.14C60.8,13.28,62.15,12.08,62.39,9.83ZM62.33,7c1.71.6,3.48-.59,4.72-3C65,4.25,63.72,5.49,62.33,7Zm32-4.4A3.84,3.84,0,0,0,90,5.54C92,5.77,92.83,3.72,94.34,2.64Z" transform="translate(-0.49 -0.36)"/><path class="cls-1" d="M83.57,84.17A10.58,10.58,0,0,1,86.64,86c.79.59,1.22.46,1.67-.46,1.19-2.45,1.22-2.43-1-3.71a15.14,15.14,0,0,0-1.89-1.12c-1.52-.63-1.94-1.82-1.77-3.49.15-1.49.39-1.68,1.64-.9,1.43.89,2.88,1.74,4.27,2.69.88.6,1.37.5,1.85-.57q3.27-7.4,6.66-14.74c.37-.8.26-1.2-.47-1.62-3.55-2-7.07-4.11-10.62-6.15-1.73-1-1.83-1.27-1.37-3.37.2-.91.57-1,1.25-.61,1.07.65,2.17,1.24,3.22,1.92s1.35-.1,1.76-.84.09-1.25-.58-1.61c-1.21-.65-2.4-1.33-3.6-2a3.66,3.66,0,0,1-.94-.67A2.21,2.21,0,0,1,86.45,46c.59-.92,1.31-.24,1.9.1,11.49,6.61,22.89,13.39,33.92,20.9,13.92,9.47,27.33,19.68,39.55,31.69a88.48,88.48,0,0,1,14.57,17.95,29.28,29.28,0,0,1,3.87,9.7,12.36,12.36,0,0,1-.92,7.64q-5.88,12.78-11.73,25.57c-.75,1.65-1.44,3.33-2.16,5a13.13,13.13,0,0,1-1.58,2.91,1.88,1.88,0,0,1-.17-1.72c.62-2,.11-3.93-.42-5.82a33.87,33.87,0,0,0-4.32-9c-4.54-7.14-10.25-13.12-16.18-18.81a270.41,270.41,0,0,0-35.66-28.38C100,98.78,92.75,94,85.31,89.65,83.05,88.34,82.64,87,83.57,84.17ZM101.48,64.4a3.84,3.84,0,0,0-1.12,1.73c-2,4.58-4,9.12-6.25,13.57-.63,1.25-.37,1.79.69,2.47,6,3.78,12,7.58,17.78,11.64.24.17.46.42.85.3a5.5,5.5,0,0,0,1-1.53c2.12-4.66,4.22-9.32,6.38-14a1.32,1.32,0,0,0-.53-2c-3-1.93-6-3.91-9-5.87Zm38.32,27a5.87,5.87,0,0,0-1.67-1.75c-4.32-3.45-8.83-6.61-13.25-9.91-1-.72-1.31-.42-1.76.59-2.12,4.77-4.25,9.52-6.48,14.22a1.66,1.66,0,0,0,.63,2.51c4.61,3.4,9.31,6.68,13.75,10.34,1,.8,1.36.23,1.72-.57C135.11,101.72,137.45,96.57,139.8,91.43Zm7.8,30c.22-.45.45-.89.65-1.34,2.15-4.7,4.26-9.42,6.46-14.08a1.7,1.7,0,0,0-.35-2.35c-3.64-3.44-7.51-6.56-11.25-9.87-.82-.72-1.3-.5-1.72.5-2,4.85-4.27,9.61-6.58,14.32a1.5,1.5,0,0,0,.4,2.12c3.9,3.17,7.54,6.68,11.28,10.07A1.57,1.57,0,0,0,147.6,121.39Zm12.75,13.76,7.36-16c.38-.82-.07-1.28-.52-1.78q-4.4-4.89-8.78-9.78c-.35-.38-.65-.86-1.22-.91-.09.17-.18.32-.26.49-2.35,5.14-4.58,10.36-7.14,15.4a1.28,1.28,0,0,0,.3,1.68Zm9.49-14.25a2.21,2.21,0,0,0-.9,1.09c-2.1,4.61-4.16,9.24-6.34,13.81a3.27,3.27,0,0,0,.28,3.63c2.67,4.08,5.38,8.17,6,13.38,0,.06.12.11.22.2.39-.23.49-.71.67-1.09q2.64-5.73,5.27-11.47c2.12-4.58,2.12-4.58.48-9.38C174.2,127.3,171.9,124.24,169.84,120.9ZM92.22,84.82c-.71.48-.82,1.27-1.18,1.88a1.41,1.41,0,0,0,.55,2.24c1,.59,2,1.24,2.93,1.91.77.54,1.35.8,1.93-.34.94-1.88,1-2.44-.1-3.16C95,86.47,93.64,85.68,92.22,84.82Zm8.1,5.2c-1,.23-.92,1.24-1.33,1.88-.61,1-.31,1.56.57,2.07s1.66,1.09,2.47,1.66c1.37.94,1.41.94,2.08-.67.82-2,1.27-1.78-.94-3.23l-2.06-1.34A8.08,8.08,0,0,0,100.32,90Zm10,11.19c2-3.19,2-3.24-.71-5.09-.43-.3-.87-.57-1.28-.88-.71-.52-1.16-.3-1.46.52-.17.47-.38.93-.58,1.38a1.11,1.11,0,0,0,.38,1.53C107.88,99.49,109.07,100.33,110.32,101.21ZM101.08,57.1l-4.3-2.52C95,53.5,95,53.5,94.07,55.57a2.16,2.16,0,0,0,0,.52l3.58,2.18C99.86,59.63,99.86,59.63,101.08,57.1ZM117,105.85c.34-.73.63-1.33.91-1.94.21-.45.56-1,.22-1.4a13.23,13.23,0,0,0-3.42-2.74.44.44,0,0,0-.35,0c-1.11.52-1.37,3-.4,3.79S115.89,105,117,105.85ZM104,59c-.73.29-.77,1.13-1.13,1.7s.1.77.41,1c1.26.83,2.53,1.63,3.79,2.46.55.36,1.08.64,1.41-.26.27-.73,1.08-1.49-.07-2.19s-2.55-1.59-3.82-2.38C104.36,59.14,104.17,59.06,104,59Zm17,45.37c-.49.89-.91,1.62-1.29,2.37a.89.89,0,0,0,.14,1.13c1,.81,1.88,2.16,3.11,2.13.87,0,1.1-1.56,1.64-2.41,0-.05,0-.16,0-.34C123.58,106.12,122.25,105.41,121,104.32Zm-4.4-36.82a1.37,1.37,0,0,0-.72-1c-1-.69-2.08-1.36-3.11-2.06-.67-.45-1.15-.32-1.56.43s-.61,1.4.26,2,2,1.37,3,2c.37.24.79.79,1.21.31A8.67,8.67,0,0,0,116.59,67.5Zm10.51,41.67c-1.72,1.69-1.72,2.86,0,4.24.6.49,1.21,1,1.81,1.44,1.85-2.75,1.82-3-.54-4.77C127.93,109.76,127.51,109.47,127.1,109.17Zm-7.83-40.38c-.17.29-.29.48-.4.68-.88,1.59-.86,1.65.62,2.65.72.48,1.42,1,2.12,1.51.48.35,1,.76,1.37,0s1-1.5.14-2.2C121.89,70.45,120.57,69.66,119.27,68.79Zm13.4,44.8c-.41.84-.76,1.52-1.08,2.22a1.06,1.06,0,0,0,.2,1.37c.7.59,1.41,1.16,2.12,1.73.35.28.61.11.87-.19,1.22-1.39,1.15-2.41-.23-3.57Zm-2.41-36.9a37.32,37.32,0,0,0-4-3.12c-1.29,2.34-1.29,2.34.51,3.69l.73.54c1.6,1.19,1.6,1.19,2.59-.7A3.83,3.83,0,0,0,130.26,76.69Zm7.83,41.57c-1.89,2.46-1.49,3.83,1.41,5.33a11.09,11.09,0,0,0,1.2-2.06.72.72,0,0,0-.15-1.06ZM133,78.42c-.35.46-.65.89-1,1.3a.83.83,0,0,0,.11,1.3,15.46,15.46,0,0,0,3.22,2.35,8.11,8.11,0,0,0,1.24-2.22Zm6,4.58c-1.47,2-1.47,2,.24,3.43.34.27.66.58,1,.85,1,.82,1.38.66,1.76-.64a1.6,1.6,0,0,0-.65-1.88C140.52,84.17,139.75,83.62,138.92,83Zm4.15,39.77c-1.56,2.9-1.15,4.25,1.42,5.16,1.49-2,1.47-2.35-.22-4Zm.5-33,3,2.83c.46-1,1.68-1.71.66-2.86a25.4,25.4,0,0,0-2.65-2.29Zm6.37,2.4c-.41.74-.78,1.42-1.19,2.18a22.18,22.18,0,0,0,3.09,2.57c.36-1,1.38-1.67.74-2.55A7.56,7.56,0,0,0,149.94,92.15Zm-2.2,35.5c-1.6,2.43-1.4,3.2,1.15,4.77C151,130.3,149.71,129,147.74,127.65Zm7.36-31.1c-1.43,1.93-1.42,2.17.11,3.63a3.71,3.71,0,0,0,.29.27c.47.36.91,1.17,1.56.34a1.67,1.67,0,0,0,.06-2.24C156.5,97.83,155.78,97.21,155.1,96.55ZM152.3,132c-1.57,1.65-1.6,2.24-.27,4,.4.52.81,1.31,1.49.66s1.16-1.3.46-2.27C153.42,133.63,152.87,132.84,152.3,132Zm9.86-28.16a6,6,0,0,0-2.16-2.47c-.34,0-.52.21-.72.47-1,1.37-.05,2.15.72,3,.36.39.68,1,1.24.67S162,104.46,162.16,103.88Zm-6,33.39c-1.28,1.89-1,3.08,1,4.54C158.67,140.29,158.34,138.75,156.19,137.27Zm9.1-26.92c1.5-1.81,1.5-2-.13-3.63-.34-.34-.69-1-1.23-.49a1.54,1.54,0,0,0-.52,1.82A6,6,0,0,0,165.29,110.35Zm3.12.09c-1.31,1.71-1.33,2-.17,3.52.33.46.62,1.36,1.32.82a1.7,1.7,0,0,0,.46-2.29A8.07,8.07,0,0,0,168.41,110.44Zm3.72,4.87c-1.43,2.26-1.36,2.69.72,4.71C174.38,118.4,174.29,117.88,172.13,115.31Zm-8.28,37c1.36-1.89,1.24-3.05-.55-5C162,149.62,162,149.87,163.85,152.31Zm-3.12-5.67c1.36-1.66,1.5-2.21-.73-4.53C158.56,143.82,158.8,145.29,160.73,146.64Zm15.21-21.12c1.56-1.27,1.3-2.56-.46-4.58C174.26,122.37,174.31,122.87,175.94,125.52Zm-9.62,28c-1.41,1.52-1.42,3.43-.18,5.85C167.69,157.51,166.39,155.65,166.32,153.51ZM178,126.93c-.77,2.47-.73,3.52.19,5.52A4.78,4.78,0,0,0,178,126.93Z" transform="translate(-0.49 -0.36)"/><path class="cls-1" d="M106.44,108.15c-.48,1.44-1.71,1.79-2.72,2.38s-1,.92-.35,1.85c1.54,2.08,1.49,2.12,3.53.7l1.61-1.11c2-1.33,3.09-1.06,4.54,1.09-.13.57-.62.71-1,1-1.53,1-3,2-4.59,2.94a1,1,0,0,0-.39,1.56q4.37,7,8.74,14.07c.5.82,1,.57,1.59.16,3.41-2.39,6.83-4.75,10.24-7.13a2.8,2.8,0,0,1,3.63,1c.26.55-.13.76-.44,1-1.15.78-2.3,1.55-3.46,2.29-.62.39-.9.78-.37,1.52s.75,1.59,1.74.85c1.37-1,2.71-2,4.09-3,.77-.55,2.79.52,2.87,1.53.06.62-.45.82-.84,1.08q-6.12,4.15-12.26,8.29a361.13,361.13,0,0,1-49,28.12A156.7,156.7,0,0,1,50,177.34a105.31,105.31,0,0,1-14.29,2.84,24.21,24.21,0,0,1-9.42-.75,11.3,11.3,0,0,1-6.84-5.33q-3.49-5.68-7-11.39C8.67,156.39,5,149.92,1,143.72a2.05,2.05,0,0,1-.49-1.11c.3-.32.49,0,.61.18,2.4,3,5.67,3.51,9,3.76,6.09.47,12-.74,17.88-2.36,18.61-5.14,35.81-14,52.68-23.75,7-4.06,13.9-8.32,20.59-13C103.54,105.84,104.19,106,106.44,108.15Zm-22.8,23.61c3.1,5.11,6.11,10.05,9.1,15,.53.88,1.1.61,1.73.22,2.5-1.52,5-3,7.51-4.56,3.59-2.22,7.18-4.47,10.75-6.72.44-.28,1.14-.48.63-1.32q-4.39-7.09-8.77-14.2c-.43-.69-.88-.7-1.49-.31C96.72,123.91,90.32,127.92,83.64,131.76ZM63.52,142.49c2.58,4.27,5.09,8.47,7.64,12.63,2.29,3.77,1.33,3.24,4.92,1.65a139.83,139.83,0,0,0,13.63-7.21c.52-.3,1.15-.56.61-1.43q-4.36-7-8.71-14.07c-.42-.68-.93-.64-1.53-.32C74.63,136.63,69.17,139.51,63.52,142.49Zm7.13,17c-3.19-5.23-6.23-10.21-9.25-15.19-.43-.71-.93-.62-1.53-.32-4.5,2.2-9.1,4.15-13.75,5.93-.86.33-.89.74-.42,1.51q4.2,6.91,8.34,13.86a1.1,1.1,0,0,0,1.5.59c2.26-.89,4.54-1.69,6.78-2.64C65.06,162.05,67.76,160.77,70.65,159.47ZM52,166.91a2.82,2.82,0,0,0-.16-.59c-2.94-4.83-5.9-9.65-8.84-14.49-.43-.69-.92-.62-1.54-.39a50.62,50.62,0,0,1-6.65,2.17c-2.3.52-4.59,1.06-6.91,1.6a2.11,2.11,0,0,0,.11.51q4.36,7.29,8.74,14.56a1.54,1.54,0,0,0,2,.74c2.36-.68,4.75-1.26,7.12-1.91A38.82,38.82,0,0,0,52,166.91Zm-17.51,4.9a1.65,1.65,0,0,0-.38-1.39c-2.5-4.21-5-8.4-7.52-12.63A3.21,3.21,0,0,0,22.87,156a19.9,19.9,0,0,1-7,.33c-2.1-.33-4.26-.29-6.3-1.32a6.11,6.11,0,0,0,.67,1.5C12.48,160.3,14.93,164,17,168a7.3,7.3,0,0,0,6.29,4.09c.51,0,1,.12,1.51.15A53,53,0,0,0,34.5,171.81Zm60.28-55.4c2.18,3.85,1.75,3.43,4.62,1.53,3.07-2,3.17-1.17.78-4.76-.05-.07-.15-.09-.26-.16ZM87,121.09c.51.84,1,1.54,1.38,2.27s.9.88,1.58.44c1.33-.86,2.68-1.69,4.07-2.56l-1.4-2.37c-.32-.52-.77-.77-1.3-.45C90,119.27,88.54,120.16,87,121.09ZM80,125.36c1.55,3.4,1.57,3.4,4.35,1.7l.45-.26c1.76-1,1.76-1,.63-2.79-.1-.15-.21-.29-.3-.44-.44-.75-.93-.94-1.68-.42C82.34,123.92,81.19,124.6,80,125.36Zm43.83,7a24.48,24.48,0,0,0-5.57,4c1.07,2.19,1.07,2.19,3,.94a7.66,7.66,0,0,0,.76-.5c1-.85,2.38-1.33,3.2-2.59Zm-44.94-2.66c.05-.64-1.34-2.63-1.88-2.53a10,10,0,0,0-3.82,1.95.49.49,0,0,0-.13.37,6.19,6.19,0,0,0,1.9,2.63A16.68,16.68,0,0,0,78.82,130,1.22,1.22,0,0,0,78.88,129.75Zm-9,1c-.63.33-1.24.64-1.84,1-2.12,1.14-2.09,1.12-.69,3.27.51.79,1,.86,1.66.38s1.28-.71,1.88-1.12c.41-.28,1.25-.37.87-1.21A3.84,3.84,0,0,0,69.9,130.77Zm45.35,7.17c-1.49,1-2.77,2-4.16,2.73-1.14.62-.68,1.27-.32,2.09.43,1,1,.81,1.63.35s1.32-.81,1.94-1.28c.81-.61,1.85-.93,2.36-2Zm-8,5.17c-1.27.78-2.47,1.53-3.69,2.26-1,.58-1.12,1.27-.3,2.13.24.25.37.63.81.75,1-.61,2-1.24,3-1.9C108.82,145.22,108.85,144.84,107.26,143.11ZM59.65,136c.45.78.78,1.35,1.12,1.92.23.37.36.85.88.88s3.26-1.32,3.34-1.73c.26-1.26-.81-1.78-1.31-2.63,0-.06-.14-.08-.28-.17ZM101,149.66c-1.25-2.18-1.25-2.18-3.07-1-.62.4-1.25.76-1.87,1.15-.43.26-1,.45-.63,1.21s.71,1.66,1.54,1.29A10.88,10.88,0,0,0,101,149.66Zm-42.46-10a3.81,3.81,0,0,0-1.49-2c-.37-.21-3.11,1-3.3,1.41-.35.81.4,1.19.66,1.76.46,1,1.1,1.26,2,.62a9.86,9.86,0,0,1,1.5-.72A1,1,0,0,0,58.54,139.61Zm29.66,15a6,6,0,0,0,1.46,1.93c.75-.43,1.5-.84,2.23-1.27,2-1.19,2-1.41.52-3.24,0-.06-.15-.08-.28-.15C90.85,152.74,89.37,153.3,88.2,154.62Zm-40.75-13c.79,2.65,1.36,3,3.53,2.08l.23-.11c.49-.25,1.41-.32,1-1.19s-.69-2.21-2-1.94A15.37,15.37,0,0,0,47.45,141.59Zm34,16.25c.27,1.09.57,2.11,1.64,1.86a9,9,0,0,0,3.62-1.86,8.92,8.92,0,0,1-.44-.82c-.48-1.18-1.17-1.4-2.19-.7C83.31,156.88,82.42,157.31,81.49,157.84Zm-4.84,5.3L78.84,162c1.28-.67,1.34-1.2.31-2.29a1,1,0,0,0-1.36-.24c-.63.36-1.29.66-1.91,1-.39.24-1.12.33-.77,1.12A2.34,2.34,0,0,0,76.65,163.14ZM46.13,145.25c-1-2.67-1.13-2.74-3.45-1.81l-.12,0c-.51.21-1.22.45-.84,1.18s.72,2.18,1.85,1.85A6.39,6.39,0,0,0,46.13,145.25Zm22.4,18.83c1.14,2.24,3,2.45,4.6.63a.71.71,0,0,0,.16-.74c-.37-1.38-1.1-1.74-2.29-1.12C70.21,163.26,69.41,163.64,68.53,164.08ZM35.76,146.22c1.1,2.41,1.43,2.61,3.25,1.9.47-.19,1.29-.3,1-1.1s-.61-2-1.74-1.82A4.6,4.6,0,0,0,35.76,146.22ZM62.58,166.7c1,2.2,1,2.2,3,1.47.28-.1.56-.22.84-.31,1-.33.89-1,.36-1.66a1.41,1.41,0,0,0-1.89-.56C64.13,166,63.39,166.32,62.58,166.7Zm-11.86,4.24c1,2.57,2.6,2.83,4.36.77-.26-.39-.52-.8-.79-1.2s-.48-.82-.89-.54C52.61,170.54,51.63,170.46,50.72,170.94Zm6-1.82c.1.22.16.43.27.62.28.55.48,1.42,1.1,1.37A5.41,5.41,0,0,0,60.74,170c.22-.15.17-.5.1-.77a1.66,1.66,0,0,0-2.08-1.19A6.77,6.77,0,0,0,56.68,169.12ZM29.93,147.94a5.27,5.27,0,0,0,1.24,1.84,3.49,3.49,0,0,0,2.84-.29c.55-.8-.15-1.34-.47-1.93a1.1,1.1,0,0,0-1.46-.41C31.4,147.37,30.73,147.64,29.93,147.94Zm-1.42,2.68c-.73-1.79-1.45-2.24-2.94-1.84-.48.12-1.31.05-1.12.9s.54,1.9,1.62,1.78A4.87,4.87,0,0,0,28.51,150.62ZM49.23,174a2.41,2.41,0,0,0-3.8-1.4.62.62,0,0,0-.28.67,1.78,1.78,0,0,0,2,1.55A5.67,5.67,0,0,0,49.23,174ZM22.58,151.89c-.68-2.34-2.16-2.86-4-1.49C19.53,152.51,20,152.7,22.58,151.89Zm10.91,23c.47,1.95,2,2.77,3.6,2,.67-.35.55-.79.13-1.28C36.16,174.29,34.88,174.6,33.49,174.84Zm9.9.71c0-2.09-2-2.41-4-1.25C40,176.3,41.11,176.51,43.39,175.55Zm-30.8-25c.74,1.86,1.87,2.15,4.18,1.68A2.76,2.76,0,0,0,12.59,150.58Zm8.32,23.13a4.48,4.48,0,0,0,4.72,2.84C24.57,174.58,22.88,174,20.91,173.71Zm10.83,3.38a2.94,2.94,0,0,0-3.73-2c-.61.28-.37.68-.1,1.08C28.69,177.36,29.94,177.66,31.74,177.09ZM5.85,148.81a4.12,4.12,0,0,0,4.52,2.74C9.76,150.33,9,149.88,5.85,148.81Z" transform="translate(-0.49 -0.36)"/><path class="cls-1" d="M117.12,162.84c.35.82-.24,1.14-.24,1.83,1,.56,2.14,1.25,3.21.85s1.4-1.7,1.64-2.85c-.46-.54-.93-.28-1.37-.28s-.63.05-.75-.34.16-.59.38-.8c1.25-1.2,2.55-2,4.34-1.28,1.33.56,2.8.59,4.14,1.21.8.36,1.1-.41,1.39-1,1.73-3.74,3.56-7.44,5.14-11.25,1.71-4.11,4.58-7.41,6.45-11.38.36-.76.94-.91,1.57-.3.8.77,1.8,1.35,2.2,2.58-.51.33-.93,0-1.36-.06a1.78,1.78,0,0,0-1.36,0c-.56.33-1.21.73-1.18,1.49s.78.74,1.29.88c1.67.46,1.8.36,2.87-1.87a.91.91,0,0,1,1,.58c.76,1.83,2.46,2.54,3.65,3.84.38.42.9.75.83,1.54a5.29,5.29,0,0,1-2.82,0c-2.46-.39-4.92-.83-7.37-1.29a1.2,1.2,0,0,0-1.55.76q-3.47,7.69-6.94,15.37a4.13,4.13,0,0,0-.19.74c-.07.28,5.41,1.09,5.81,1.16a63.73,63.73,0,0,0,7.25,1.09,2.59,2.59,0,0,0,2.8-1.77c1.66-3.67,3.44-7.29,5-11,.25-.64.28-1.76,1.36-1.29a1.9,1.9,0,0,1,.79,2.56c-1.07,2.35-2.2,4.67-3.26,7a30.22,30.22,0,0,0-1.93,4.26c3.87.71,7.17-.74,10.35-2.79.14.21.3.33.34.49a14.52,14.52,0,0,1,.2,3.79,6.82,6.82,0,0,1-4.28,6.6,23,23,0,0,1-7.61,1.89c-4,.36-7.91-.38-11.84-.91-8.36-1.13-16.46-3.5-24.58-5.78a2.26,2.26,0,0,1-1.47-1.19Zm8.77,4.41c.62,0,1.85-1.53,1.86-2.53s-.82-.59-1.31-.75l-.6-.16a2,2,0,0,0-2.52,2c-.14,1.46,1.07,1,1.77,1.29A7.06,7.06,0,0,0,125.89,167.25Zm5.58,1.44a2.56,2.56,0,0,0,2.15-2.4c-.09-1.46-1.47-1-2.28-1.31s-2.08,1.29-2,2.38C129.5,168.76,130.84,168.21,131.47,168.69Zm3.75.45c2.57,1.1,4.21.13,4.3-2.49C136.9,165.71,135.9,166.27,135.22,169.14Zm10.09-1.62c-2.67-.85-3.12-.59-4.35,2.5C144,170.8,144.87,170.3,145.31,167.52Zm5.91-.05c-3.29-.33-2.9-.51-4.28,2.78C149.16,171.27,150.28,170.57,151.22,167.47Zm1.59,2.61c1.84.64,4.12-1.17,4.4-3.5C154.84,166.51,153.75,167.38,152.81,170.08Z" transform="translate(-0.49 -0.36)"/><path class="cls-1" d="M106.11,15.7c-2-3.38-3.93-6.31-7.08-8-.58-.3-.68-.79-.2-1.33.2-.23.43-.44.65-.65A15.15,15.15,0,0,1,104,3.6a7.07,7.07,0,0,1,5,1.94,26.42,26.42,0,0,1,6.28,8.4c4.39,8.53,7.24,17.72,9.63,27.1a86,86,0,0,1,2.42,10.63c-2.11-1.47-3.92-3-5.73-4.49.43-.66,1.1-.42,1.6-.88-.26-1-.51-2-.78-3a.74.74,0,0,0-.75-.62,6.29,6.29,0,0,0-2.56.34c-.28.95.84,1.58.29,2.71-1.53-.9-3.31-1.3-3.77-3.58-.29-1.44-.83-2.82-1.06-4.27s-1-1.62-2.16-1.5a116.46,116.46,0,0,1-17.31.77c-1.9-.1-3.8-.21-5.69-.25-.94,0-1.32-.48-1.21-1.46a7.4,7.4,0,0,1,.63-3,1.76,1.76,0,0,1,1.11,1c.75,1.84.74,1.84,2.55,1.45A5.39,5.39,0,0,0,91.74,32c-.26-.62-.89-.6-1.46-.48s-.89.15-1.17-.28,0-1,.27-1.37a9.25,9.25,0,0,1,.82-1c.18-.21.41-.46.24-.72-1.06-1.67.42-3,.32-4.55.93-.11,1.1.58,1.33,1.14a80,80,0,0,1,3.13,8.59c.28,1,.72,1.49,1.7,1.46,5.1-.13,10.2-.51,15.29-.94a1.12,1.12,0,0,0,.84-.36,10,10,0,0,0-.75-2.71,80.31,80.31,0,0,0-4.36-11.17,1.76,1.76,0,0,0-1.87-1.23c-3.76.11-7.5.47-11.24.83a3.88,3.88,0,0,1-.76,0c-.6,0-1.52.23-1.54-.67A1.73,1.73,0,0,1,94,16.6c1.9-.16,3.79-.3,5.68-.44Zm9.26,14.39c.82,3.71,1,3.86,3.91,3.09C119.63,30.24,118.28,29.13,115.37,30.09Zm2,6.46a8.52,8.52,0,0,0,.57,2.34,2.07,2.07,0,0,0,3,.82.73.73,0,0,0,.23-.59C121.25,36.45,119.66,35.36,117.37,36.55Zm-1.44-9.38c1.66-.05,1.76-.22,1.14-1.93a6.72,6.72,0,0,0-.35-.88c-.38-.68-2.79-.9-3.21-.3a.62.62,0,0,0-.12.36A2.62,2.62,0,0,0,115.93,27.17Zm-5-9.23c0,1,.61,1.62.85,2.38s2.52,1.18,3.08.56a.67.67,0,0,0,.16-.35c.22-1.09-1.09-2.82-2.11-2.78C112.31,17.77,111.7,17.87,111,17.94Zm-1.6-8.2c-.72-2.35-2.7-3.32-5.16-2.5C105.54,9,106.77,10.89,109.36,9.74Zm3.21,5.35c-.31-1.17-.72-2.36-1.81-2.76a2,2,0,0,0-2.41.53C109.35,15.52,110,15.85,112.57,15.09Z" transform="translate(-0.49 -0.36)"/><path class="cls-1" d="M32.12,139.24c-.39-.83.08-1.21.37-1.62,1.17-1.63,1.18-1.63-.19-3.3a5.77,5.77,0,0,0-1.79,2.2c-.75,1.18.74,1.69.77,2.66-1.24,1-1.79,1.13-2.93.46-1.13,1.63-3,1.56-4.63,2.1a3.15,3.15,0,0,1,.83-2c1.79-2.46,3.56-4.92,5.37-7.36a1.67,1.67,0,0,0,.18-2.11q-4.39-7.19-8.75-14.4a2.37,2.37,0,0,0-.27-.28A2.56,2.56,0,0,0,20,116.7c-2.4,3.39-4.77,6.81-7.2,10.18a2.67,2.67,0,0,0-.12,3.45c2.14,3.32,4.14,6.74,6.19,10.11a4.39,4.39,0,0,1,.84,2c-1.74.84-2.08.72-3.09-1q-2.75-4.65-5.53-9.26a6.24,6.24,0,0,0-.44-.6c-.43,0-.58.24-.7.56-1.15,3.09-2.72,6.06-2.42,9.61.08.89-.29,1.32-1.14.95a6.29,6.29,0,0,1-2.25-1.51c-.45-.51-.72-1.26-1.61-1-.33.08-.55-.34-.7-.69A11.22,11.22,0,0,1,1,132.2a39.76,39.76,0,0,1,4.81-11.36,144.38,144.38,0,0,1,16.87-22c1.45-1.61,2.88-3.24,4.32-4.86a1.53,1.53,0,0,1,1.2-.74c-.09,2.52-.37,5-.68,7.38-.6.1-.79-.38-1.22-.48-.82.68-2,1.21-2.33,2.31s.84,1.94,1.38,2.82c1-.22.92-1.62,1.91-1.58a4.77,4.77,0,0,1-.53,5c-1,1.22-2,2.46-3.12,3.63a1.64,1.64,0,0,0-.18,2.29c2.63,4.29,5.26,8.58,7.8,12.93,1.72,3,2.66,6.36,4.39,9.33a.72.72,0,0,1-.18,1.08A12.94,12.94,0,0,1,32.12,139.24ZM21.91,104.78a4.35,4.35,0,0,0-1.81,1.65c-.89,1.06-.75,1.85.46,3.12.94,1,1.36-.07,1.81-.6,1.55-1.85,1.37-1.24.2-3.26C22.39,105.39,22.16,105.12,21.91,104.78Zm-4.46,4.76c-.48.61-.88,1.08-1.25,1.58a2.54,2.54,0,0,0,.39,3.58.73.73,0,0,0,1.11,0c1.59-1.48,1.68-2.08.49-4C18,110.33,17.75,110,17.45,109.54Zm-3.9,5.29c-2.19,1.8-2.28,3-.37,5.13C15.52,118.74,15.63,117.24,13.55,114.83ZM9.84,125.44c2.22-2.87,2.22-3.36,0-5.5C7.68,123,7.59,121.91,9.84,125.44ZM4.61,136.78C6,134.39,5.83,133,3.89,131,2.76,134.44,2.9,135.57,4.61,136.78ZM6.7,125.26c-1.89,2.14-1.77,4.12.24,5.2C8.67,127.67,8.71,128.18,6.7,125.26Z" transform="translate(-0.49 -0.36)"/><path class="cls-1" d="M83.48,165.92c0-.69.59-.83,1-1.06a399.65,399.65,0,0,0,49.24-30.2c.88-.62,1.74-1.3,2.58-2a1.44,1.44,0,0,1,2.17.1c.64.69.36,1.38,0,2.12a59.35,59.35,0,0,1-30,27.57,50.85,50.85,0,0,1-16.65,3.77c-2.45.15-4.88,0-7.31,0C84.14,166.3,83.73,166.35,83.48,165.92Z" transform="translate(-0.49 -0.36)"/><path class="cls-1" d="M140.55,77.6a1.88,1.88,0,0,1-1.44-.63,358.25,358.25,0,0,0-47-30.62C90.73,45.58,89.37,44.72,88,44a1.65,1.65,0,0,1-1-2c.21-1.14,1-1,1.66-1a55.81,55.81,0,0,1,47,26.83c1.59,2.67,3.33,5.22,4.67,8.05A2,2,0,0,1,140.55,77.6Z" transform="translate(-0.49 -0.36)"/><path class="cls-1" d="M41.89,67.36c.68.41.59,1,.54,1.52a406.11,406.11,0,0,0-1.25,50.19c.19,4.92.42,9.85.66,14.78a2.38,2.38,0,0,1-.42,1.81c-.8.91-1.56.84-2.11-.25-5.35-10.69-8.36-22-7.85-34.3a65.57,65.57,0,0,1,7.7-28.76C40.05,70.7,41,69.06,41.89,67.36Z" transform="translate(-0.49 -0.36)"/><path class="cls-2" d="M83.15,103.5c0-2.86,0-5.72,0-8.57,0-1.33.3-1.52,1.34-.88,4.65,2.89,9.28,5.79,13.93,8.67.83.52.7,1,.09,1.57a5.58,5.58,0,0,1-.64.44l-12.74,8.18c-.49.31-1,.87-1.6.52s-.35-1.17-.36-1.78c0-2.72,0-5.44,0-8.15Z" transform="translate(-0.49 -0.36)"/></svg>