<?xml version="1.0" encoding="utf-8"?>
<!-- Generator: Adobe Illustrator 23.1.0, SVG Export Plug-In . SVG Version: 6.00 Build 0)  -->
<svg version="1.1" xmlns="http://www.w3.org/2000/svg" xmlns:xlink="http://www.w3.org/1999/xlink" x="0px" y="0px"
	 viewBox="0 0 512 512" style="enable-background:new 0 0 512 512;" xml:space="preserve">
<style type="text/css">
	.st0{fill:#BDCCD4;}
	.st1{fill:#3F1F35;}
	.st2{fill:#0D8E4E;}
</style>
<g id="Layer_1">
	<g>
		<path class="st0" d="M410.6,512.1H102.4c-56.3,0-101.9-45.6-101.9-101.9V101.9C0.5,45.7,46.1,0.1,102.4,0.1h308.2
			c56.3,0,101.9,45.6,101.9,101.9v308.2C512.5,466.4,466.9,512.1,410.6,512.1z"/>
		<g>
			<path class="st1" d="M277.8,84c-1.4,0.8-2.5,1.5-3.8,2.1c-3.7,1.7-6.4,4.6-8.7,8.2c-8.3,12.9-13,27.3-16.7,42.4
				c-6.3,26.2-9,52.9-11.3,79.7c-2.2,26.3-1.9,52.6-2.2,78.9c0,2.5,0.2,5,0.4,7.4c0.1,2-0.4,3.4-2.2,4.2c-1.6,0.8-3.1,1.7-4.9,2.7
				c-0.5-3.5,0.1-6.8-0.7-10.3c-1.9,0.3-3.6,0.4-5.3,0.8c-1.3,0.3-1.2,1.5-1.2,2.6c0,2.9,0.1,5.9,0.2,8.8c0,1.9-3.5,5.4-5.2,5.2
				c-1.1-0.1-1.1-1.1-1.1-2c0-3.5-0.1-7.1,0-10.6c0-3.4-0.2-3.6-3.1-3.4c-9.4,0.7-18.8,1.4-28.2,1.9c-2.1,0.1-2.6,1-2.4,3.1
				c0.5,8.6,0.8,17.2,1.1,25.8c0.1,1.9-3.3,5.2-5,4.9c-1-0.2-1.2-1.2-1.2-2c-0.1-2.2-0.1-4.4-0.3-6.6c-0.1-1.5,0.6-3.6-2-3.6
				c-2.5,0-2.9,1.3-2.8,3.7c0.2,3,0.2,6,0.2,9c0,1.8-2.6,4.6-4.2,4.3c-1.4-0.2-1.3-1.4-1.3-2.4c-0.3-10-0.7-20-0.9-30
				c-0.6-22.2-0.5-44.3,0.5-66.5c0.5-11.8,1-23.5,2.4-35.2c1.7-14.2,3.2-28.5,5.5-42.6c2.1-13.3,5-26.4,9.2-39.1
				c2.8-8.4,6.3-16.3,10.6-23.8c2.5-4.3,5.7-7.9,9.7-10.6c3.3-2.2,6.9-3.3,10.8-3.5c18.6-1,37.2-2.3,55.9-3.4c1.5-0.1,3-0.5,4.6-0.7
				C275.3,83.1,276.5,82.9,277.8,84z M214.9,269.3c0.1-0.7,0.2-1.5,0.3-2.2c0.2-2.1,0.2-4.3,0.2-6.4c0-4.2,0-8.3-0.1-12.5
				c0-0.9-0.1-1.9-0.8-2.4c-0.4-0.3-1-0.3-1.5-0.2c0,0.4-25.7,1.8-28.1,2c-2.2,0.1-3.2,2-3.2,4.2c-0.2,14.2-0.4,28.5-0.6,42.7
				c0,0.7,0,1.4,0.4,1.9c0.5,0.6,1.4,0.5,2.1,0.4c9.4-1.2,18.9-2,28.3-2.2c1.1,0,2.4-0.2,2.8-1.3c0.2-0.5,0.1-1,0.1-1.5
				c-0.4-4.6-0.4-9.3-0.4-14c0-2.1,0-4.2,0.2-6.3C214.7,270.7,214.8,270,214.9,269.3z M217.9,198.5c-2.1,0.2-3.9,0.4-5.7,0.5
				c-8.2,0.5-16.5,1.1-24.7,1.5c-1.8,0.1-2.6,0.7-2.7,2.8c-0.8,11.8-1.9,23.6-2.4,35.5c-0.1,2.2,0.7,2.7,2.5,2.7
				c9.4,0,18.7-1.6,28.1-2.3c2.3-0.2,2.5-1.8,2.6-3.6c0.6-8.7,1.4-17.5,1.9-26.2C217.7,205.8,218.3,202.3,217.9,198.5z M223.9,157.7
				c-0.7-0.1-1-0.3-1.4-0.3c-9.7,0.7-19.4,1.4-29.1,2c-2.3,0.1-3.2,1.2-3.6,3.6c-1.3,9.9-2.7,19.8-4.2,29.7
				c-0.3,1.7,0.3,2.3,1.8,2.1c9.9-1.3,19.9-0.8,29.8-2.2c1.4-0.2,2.3-0.7,2.3-2.4c0-6.3,1.4-12.3,2.3-18.4
				C222.4,167.2,223.2,162.5,223.9,157.7z M222.2,151.9c2.2,0.7,3.1-0.6,3.5-2.7c1.8-8.7,4.1-17.3,6.7-25.8c0.6-1.9,0-2.5-1.7-2.4
				c-9.5,0.6-18.9,1.2-28.4,1.8c-1.8,0.1-3,1-3.6,2.9c-2.5,8.7-4.9,17.4-6.6,26.4c-0.3,1.6,0,2.1,1.5,2c4.5-0.3,9.1-0.5,13.6-0.7
				C212.1,153.3,217.1,152.5,222.2,151.9z M201.3,117.3c0.7,0.8,1.2,0.8,1.7,0.7c8.6-0.5,17.3-1,25.9-1.6c5.9-0.4,5.9-0.5,8.3-6.3
				c3.2-7.7,7-15,12.9-20.7c0.3-0.3,0.6-0.6,0.3-1.3c-1.4-0.6-2.9,0.3-4.4,0.3c-8.2,0.3-16.3,0.8-24.5,1.2c-2,0.1-4,0.5-5.6,2.1
				C209.2,98.9,205.8,108.5,201.3,117.3z M221.2,287.2C221.2,287.2,221.1,287.2,221.2,287.2c0,0.5,0,1.1,0,1.6c-0.2,5.6-0.2,5.6,5,5
				c1.4-0.2,2-0.9,2-2.4c0-3.1,0-6.2,0-9.3c0-1.5-0.6-2-1.9-1.9c-5,0.3-5,0.2-4.9,5.7C221.2,286.3,221.2,286.7,221.2,287.2z
				 M228.1,267.8c0-0.3,0-0.5,0-0.8c0-5.7,0-5.6-5-5.2c-1.2,0.1-1.8,0.7-1.8,2c-0.1,2.8-0.1,5.7-0.2,8.5c0,1.3,0.5,1.9,1.7,1.9
				c5.1,0.1,5.2,0.1,5.2-5.6C228.1,268.3,228.1,268.1,228.1,267.8z M228.2,249.8c0,0,0.1,0,0.1,0c0-1.2,0-2.5,0-3.7
				c0-0.7-0.1-1.4-0.9-1.7c-2.9-1.2-5.4,0.5-5.6,3.8c-0.1,1.1-0.2,2.3-0.2,3.4c-0.3,4.9,0.6,5.5,4.9,4c1.3-0.5,1.9-1.3,1.8-2.7
				C228.2,251.9,228.2,250.8,228.2,249.8z M222.6,233.6c-0.3,5.4,0.7,6.5,4.6,4.7c1.1-0.5,1.7-1.2,1.8-2.5c0.1-2.1,0.2-4.2,0.2-6.3
				c0-0.9-0.2-1.7-1.1-1.6c-1.7,0.2-3.5,0.2-4.9,1c-1.2,0.7-0.4,2.8-0.6,4.2C222.6,233.3,222.6,233.5,222.6,233.6z M175.2,310.1
				c0-1.5,0-2.8,0-4.2c0.1-2.1-1.2-2.1-2.6-2.1c-1.5,0-2.2,0.6-2.1,2.4c0.2,3.2,0.4,6.3,0.4,9.5c0,1.5,0.2,2.6,2,2.5
				c1.7-0.1,2.9-0.6,2.7-2.8C175.4,313.6,175.3,311.7,175.2,310.1z M175.2,290.3C175.1,290.3,175.1,290.3,175.2,290.3
				c0-1.3,0.1-2.7,0-4c-0.1-1.1,0.5-2.9-1.4-2.6c-1.5,0.2-3.6-0.1-3.4,2.9c0.2,2.6,0.1,5.3,0.1,7.9c-0.1,1.8,0.4,2.8,2.3,2.7
				c1.7-0.1,2.8-0.6,2.6-2.8C175,293.2,175.2,291.7,175.2,290.3z M223.3,221.8c1.2,0.7,2.2,0.3,3.1,0.4c2.2,0.2,3.4-0.8,3.4-3.3
				c0-0.7,0.2-1.4,0.3-2.1c0.4-4.7,0.4-4.7-3.9-4.2c-1.1,0.1-2.2,0.2-2.3,1.7C223.7,216.9,223.5,219.3,223.3,221.8z M175.2,271.5
				C175.2,271.5,175.2,271.5,175.2,271.5c0-1.1,0.1-2.1,0-3.2c-0.1-1.1,0.5-2.8-1.4-2.8c-1.7,0-3.3,0.4-3.4,2.8
				c-0.1,2.4,0,4.8-0.2,7.2c-0.2,2.1,0.6,2.5,2.4,2.5c2,0,2.6-0.9,2.5-2.8C175.1,273.9,175.2,272.7,175.2,271.5z M231.2,197.8
				c-1.6-0.1-2.9-0.1-4.2-0.2c-0.7,0-1.4,0.3-1.5,1c-0.3,2.6-1.1,5.1-1.1,7.8c1.8,0.6,3.5-0.1,5.2,0c0.8,0,1-0.7,1.1-1.5
				C230.9,202.7,231,200.4,231.2,197.8z M171.4,238.3c0,0.1,0,0.6,0,1.1c-0.1,2.9,0.8,3.6,3.3,2.8c1-0.3,1.5-1,1.6-2.1
				c0.1-1.9,0.3-3.7,0.3-5.6c0-1.3,0.4-2.9-1.5-2.9c-1.7,0-3.3,0.3-3.5,2.8C171.5,235.5,171.5,236.7,171.4,238.3z M170.7,258.9
				c3.5,0.9,4.2,0.9,4.5-0.8c0.6-3.3,0.3-6.6,0.5-10.1c-1.8,0.5-4-0.9-4.4,1.6C170.8,252.6,170.9,255.8,170.7,258.9z M228.8,192.1
				c0.9-0.2,2.3,0.4,3-0.8c1.1-2.2,1.2-4.8,1-7.1c-0.2-1.6-2.4-0.4-3.6-0.7c-1.6-0.4-2.1,0.6-2.2,2.2c-0.1,1.2-0.2,2.4-0.5,3.6
				C225.8,192.2,225.9,192.3,228.8,192.1z M228.3,176.2c0,0.7-0.2,1.4,0.5,1.9c1.7,1,5-0.9,5.3-3c0.1-0.5,0.2-1,0.3-1.6
				c0.8-4.1,0.3-4.7-3.6-3.8c-1.3,0.3-2,1-2.1,2.5C228.6,173.5,228.4,174.8,228.3,176.2z M173.8,206.7c-0.2,3.4,0.2,4,2.7,3.5
				c1.1-0.2,1.6-0.9,1.8-2.2c0.1-1.4,0.3-2.8,0.6-4.2c0.4-2.8,0.1-3.1-2.4-2.9c-1.6,0.1-2.4,0.8-2.4,2.6
				C174,204.6,173.9,205.6,173.8,206.7z M177.7,218.4c0.1-1.4,0.1-2.5-1.7-2.4c-1.5,0.1-3.2-0.5-3.4,2.1c-0.1,1.9-0.2,3.9-0.3,5.8
				c-0.1,1.4,0.4,2.1,1.9,1.9c1.6-0.2,2.7-1,2.9-2.9C177.4,221.4,177.5,219.9,177.7,218.4z M230.1,164.1c5.3,0.9,6,0.3,6.6-4.8
				c0.1-1.1,0.5-2.5-0.9-2.5c-1.5,0-3.6-0.8-4.4,1.1C230.6,159.7,230.5,161.9,230.1,164.1z M232.6,151c4.3,1.3,5.3,0.7,6.3-3.7
				c0.3-1.1,1.1-2.6-0.6-3.1c-1.5-0.5-3.2-0.6-4,1.2C233.5,147.1,232.8,148.9,232.6,151z M182.3,175c0.1-2-0.7-2.5-2.4-2
				c-2.7,0.9-2.7,3.3-2.9,5.7c-0.1,1.2-0.8,2.6,0.9,2.9c1.6,0.3,3-0.2,3.5-2C181.9,178.1,182,176.5,182.3,175z M235.6,138.8
				c0.6,0.1,1,0.2,1.4,0.2c3.2,0.1,5.5-2.5,5.4-6c0-0.6-0.2-1-0.7-1.2c-1.4-0.7-4.1,0.3-4.7,2C236.3,135.3,235.6,136.9,235.6,138.8z
				 M175.1,195.1c3.9,1,4.1,0.8,4.6-3c0.1-1,0.3-2.1,0.5-3.1c0.2-1.1,0.4-2.3-1.1-2.2c-1.3,0.1-3.2-0.9-3.5,1.6
				C175.4,190.6,175.3,192.9,175.1,195.1z M184.6,160.4c-4.6-1.1-6.4,1.2-5.7,7C184.4,167.9,183.3,168,184.6,160.4z M182.7,154.9
				c2.7,0,3.2-0.6,3.9-4.6c0.2-1.2,0.4-2.4-0.9-2.8c-1.3-0.4-2.6-0.3-3.2,1.4c-0.5,1.3-0.8,2.7-1.2,4
				C180.8,154.4,181.4,155,182.7,154.9z M189.9,135.4c-3.3-0.9-4.4-0.1-5.4,3.4c-0.3,1.3-1.3,2.9,0.6,3.6c1.8,0.7,3.2-0.1,3.8-2.2
				C189.3,138.7,189.5,137.1,189.9,135.4z M193.2,123.9c-3.7-0.7-6,1.3-6.2,5.1c-0.1,1.1,0.6,1.3,1.4,1.3
				C191.3,130.4,192.9,128.4,193.2,123.9z M239.1,126.3c3.3,1.6,6.5-0.8,6.3-4.7c-0.1-1.3-0.8-1.3-1.7-1.3
				C240.9,120.6,239.9,121.9,239.1,126.3z M244.3,115.6c2.5,0.1,3.8-1.1,4.8-4.6c0.2-0.6,0.7-1.3,0.1-2c-0.6-0.7-1.3-0.5-2-0.3
				c-1.7,0.4-4,3.5-4.2,5.5C243,115.1,243.3,115.8,244.3,115.6z M191.2,118.2c3.4,1.6,5.5-0.4,6.2-5.8
				C193,111.9,192.4,113.1,191.2,118.2z M255.3,98.2c-3.1-1-6.8,1.7-6.9,4.7c0,1,0.5,1.3,1.4,1.2
				C253.1,103.7,253.9,100.8,255.3,98.2z M202.5,101.3c-3.4-0.3-5.9,2.1-6.7,6C199.4,107.9,202,105.6,202.5,101.3z M202.4,95.9
				c3.3,1.2,6.7-1.1,9.1-5.9C207.5,90.6,205,93,202.4,95.9z M263.9,87.5c-3.9-0.6-7.6,1.9-8.4,5.6C259.5,93.5,261,89.6,263.9,87.5z"
				/>
			<path class="st1" d="M243.2,244.2c2.2,0.7,4,2.2,5.9,3.5c1.5,1.1,2.3,0.9,3.2-0.9c2.3-4.7,2.3-4.7-1.9-7.1
				c-1.2-0.7-2.4-1.6-3.6-2.1c-2.9-1.2-3.7-3.5-3.4-6.7c0.3-2.9,0.8-3.2,3.2-1.7c2.7,1.7,5.5,3.4,8.2,5.2c1.7,1.2,2.6,1,3.5-1.1
				c4.2-9.5,8.5-18.9,12.8-28.3c0.7-1.5,0.5-2.3-0.9-3.1c-6.8-3.9-13.6-7.9-20.4-11.8c-3.3-1.9-3.5-2.5-2.6-6.5
				c0.4-1.8,1.1-2,2.4-1.2c2.1,1.2,4.2,2.4,6.2,3.7c1.9,1.2,2.6-0.2,3.4-1.6c0.9-1.6,0.2-2.4-1.1-3.1c-2.3-1.3-4.6-2.6-6.9-3.9
				c-0.6-0.4-1.3-0.7-1.8-1.3c-1.4-1.6-1.7-3.5-0.6-5.3c1.1-1.8,2.5-0.5,3.7,0.2c22.1,12.7,44,25.7,65.2,40.2
				c26.7,18.2,52.5,37.8,76,60.9c10.5,10.3,20.3,21.5,28,34.5c3.4,5.7,6.2,11.8,7.4,18.6c0.9,5.2,0.4,10-1.8,14.7
				c-7.5,16.4-15,32.7-22.5,49.1c-1.4,3.2-2.8,6.4-4.2,9.6c-0.8,1.9-1.7,3.8-3,5.6c-0.8-1.1-0.6-2.3-0.3-3.3
				c1.2-3.9,0.2-7.5-0.8-11.2c-1.8-6.3-4.9-11.9-8.3-17.3c-8.7-13.7-19.7-25.2-31.1-36.2c-21.3-20.5-44.5-38.2-68.5-54.5
				c-13.8-9.4-27.6-18.6-41.9-26.9C242.2,252.2,241.4,249.6,243.2,244.2z M277.6,206.2c-1.2,0.9-1.7,2.1-2.2,3.3
				c-3.8,8.8-7.7,17.5-12,26.1c-1.2,2.4-0.7,3.5,1.3,4.7c11.5,7.3,23,14.6,34.2,22.4c0.5,0.3,0.9,0.8,1.6,0.6
				c0.8-0.8,1.4-1.8,1.9-2.9c4.1-8.9,8.1-17.9,12.3-26.8c0.8-1.8,0.6-2.8-1-3.8c-5.8-3.7-11.6-7.5-17.3-11.3
				C290.1,214.3,283.9,210.2,277.6,206.2z M351.2,258.1c-0.9-1.6-2.1-2.5-3.2-3.3c-8.3-6.6-17-12.7-25.5-19.1
				c-1.9-1.4-2.5-0.8-3.4,1.1c-4.1,9.1-8.2,18.3-12.5,27.3c-1.1,2.4-0.7,3.4,1.2,4.8c8.9,6.5,17.9,12.8,26.4,19.9
				c1.8,1.5,2.6,0.4,3.3-1.1C342.2,277.9,346.7,268,351.2,258.1z M366.2,315.7c0.4-0.9,0.9-1.7,1.2-2.6c4.1-9,8.2-18.1,12.4-27
				c0.9-1.9,0.9-3.1-0.7-4.5c-7-6.6-14.4-12.6-21.6-19c-1.6-1.4-2.5-1-3.3,1c-3.9,9.3-8.2,18.5-12.6,27.5c-0.8,1.7-0.7,2.9,0.8,4.1
				c7.5,6.1,14.5,12.8,21.7,19.3C364.6,315,365.1,315.7,366.2,315.7z M390.7,342.1c4.6-10,9.4-20.3,14.1-30.6c0.7-1.6-0.1-2.5-1-3.4
				c-5.6-6.3-11.2-12.5-16.9-18.8c-0.7-0.7-1.2-1.6-2.3-1.7c-0.2,0.3-0.4,0.6-0.5,0.9c-4.5,9.9-8.8,19.9-13.7,29.6
				c-0.7,1.4-0.3,2.3,0.6,3.2C377.5,328.2,384.1,335.1,390.7,342.1z M409,314.7c-1.1,0.7-1.4,1.4-1.7,2.1c-4,8.9-8,17.8-12.2,26.6
				c-1.3,2.7-1,4.6,0.5,7c5.1,7.8,10.3,15.7,11.4,25.7c0,0.1,0.2,0.2,0.4,0.4c0.7-0.4,0.9-1.4,1.3-2.1c3.4-7.3,6.7-14.7,10.1-22
				c4.1-8.8,4.1-8.8,0.9-18C417.3,327,412.9,321.2,409,314.7z M259.8,245.4c-1.4,0.9-1.6,2.4-2.3,3.6c-1.1,1.9-0.8,3.2,1.1,4.3
				c1.9,1.1,3.8,2.4,5.6,3.7c1.5,1,2.6,1.5,3.7-0.7c1.8-3.6,1.9-4.7-0.2-6.1C265.2,248.6,262.5,247.1,259.8,245.4z M275.4,255.4
				c-1.8,0.5-1.8,2.4-2.6,3.6c-1.2,1.9-0.6,3,1.1,4c1.6,0.9,3.2,2.1,4.7,3.2c2.6,1.8,2.7,1.8,4-1.3c1.6-3.8,2.4-3.4-1.8-6.2
				c-1.3-0.9-2.6-1.7-4-2.6C276.4,255.8,275.9,255.6,275.4,255.4z M294.6,276.9c3.8-6.1,3.7-6.2-1.4-9.8c-0.8-0.6-1.7-1.1-2.5-1.7
				c-1.3-1-2.2-0.6-2.8,1c-0.3,0.9-0.7,1.8-1.1,2.6c-0.5,1.2-0.4,2.2,0.7,2.9C289.9,273.6,292.2,275.2,294.6,276.9z M276.8,192.1
				c-2.9-1.7-5.6-3.3-8.3-4.8c-3.5-2.1-3.5-2.1-5.2,1.9c-0.1,0.2,0,0.5,0,1c2.2,1.4,4.6,2.8,6.9,4.2
				C274.5,197,274.5,197,276.8,192.1z M307.4,285.8c0.7-1.4,1.2-2.6,1.8-3.7c0.4-0.9,1.1-1.8,0.4-2.7c-1.8-2.3-4.2-3.7-6.6-5.3
				c-0.2-0.1-0.5,0-0.7,0.1c-2.1,1-2.6,5.8-0.8,7.3C303.4,282.9,305.3,284.3,307.4,285.8z M282.4,195.7c-1.4,0.6-1.5,2.2-2.2,3.3
				c-0.6,0.9,0.2,1.5,0.8,1.9c2.4,1.6,4.9,3.1,7.3,4.7c1.1,0.7,2.1,1.2,2.7-0.5c0.5-1.4,2.1-2.9-0.1-4.2c-2.5-1.5-4.9-3.1-7.3-4.6
				C283.1,196.1,282.8,195.9,282.4,195.7z M315.1,282.9c-0.9,1.7-1.8,3.1-2.5,4.6c-0.4,0.7-0.4,1.6,0.3,2.2c1.9,1.6,3.6,4.1,6,4.1
				c1.7,0,2.1-3,3.1-4.6c0.1-0.1,0-0.3,0-0.7C320.1,286.3,317.5,285,315.1,282.9z M306.6,212.1c-0.2-1.1-0.8-1.5-1.4-1.9
				c-2-1.3-4-2.6-6-4c-1.3-0.9-2.2-0.6-3,0.8c-0.8,1.4-1.2,2.7,0.5,3.8c1.9,1.3,3.8,2.6,5.7,3.9c0.7,0.5,1.5,1.5,2.3,0.6
				C305.6,214.4,306.1,213.1,306.6,212.1z M326.8,292.2c-3.3,3.2-3.3,5.5-0.1,8.1c1.1,0.9,2.3,1.8,3.5,2.8c3.6-5.3,3.5-5.7-1-9.2
				C328.4,293.3,327.6,292.8,326.8,292.2z M311.8,214.6c-0.3,0.6-0.6,0.9-0.8,1.3c-1.7,3.1-1.7,3.2,1.2,5.1c1.4,0.9,2.7,1.9,4.1,2.9
				c0.9,0.7,1.9,1.5,2.6-0.1c0.6-1.3,2-2.9,0.3-4.2C316.8,217.8,314.3,216.3,311.8,214.6z M337.5,300.7c-0.8,1.6-1.5,2.9-2.1,4.3
				c-0.4,0.9-0.5,1.9,0.4,2.6c1.3,1.1,2.7,2.2,4.1,3.3c0.7,0.5,1.2,0.2,1.7-0.4c2.3-2.7,2.2-4.6-0.4-6.9
				C340,302.7,338.8,301.8,337.5,300.7z M332.9,229.8c-2.4-2.4-5.1-4-7.6-6c-2.5,4.5-2.5,4.5,1,7.1c0.5,0.4,0.9,0.7,1.4,1
				c3.1,2.3,3.1,2.3,5-1.3C332.7,230.4,332.7,230.3,332.9,229.8z M348,309.7c-3.6,4.7-2.9,7.4,2.7,10.2c1.1-1.1,1.5-2.6,2.3-3.9
				c0.5-0.8,0.4-1.4-0.3-2C351.1,312.5,349.6,311.1,348,309.7z M338.1,233.1c-0.7,0.9-1.2,1.7-1.9,2.5c-0.7,0.9-0.6,1.8,0.2,2.5
				c2,1.6,3.8,3.5,6.2,4.5c1.1-1.2,1.7-2.7,2.4-4.3C342.7,236.6,340.4,234.9,338.1,233.1z M349.6,241.9c-2.8,3.8-2.8,3.9,0.5,6.6
				c0.6,0.5,1.3,1.1,1.9,1.6c2,1.6,2.7,1.3,3.4-1.2c0.5-1.6-0.1-2.7-1.2-3.6C352.6,244.2,351.1,243.1,349.6,241.9z M357.5,318.3
				c-3,5.6-2.2,8.2,2.7,9.9c2.9-3.9,2.8-4.5-0.4-7.7C359.1,319.8,358.4,319.2,357.5,318.3z M358.5,254.9c2,1.9,3.8,3.6,5.8,5.4
				c0.9-2,3.2-3.3,1.3-5.5c-1.4-1.6-3.3-2.8-5.1-4.4C359.8,252,359.2,253.4,358.5,254.9z M370.7,259.5c-0.8,1.4-1.5,2.7-2.3,4.2
				c2,1.7,3.7,3.6,5.9,4.9c0.7-1.8,2.7-3.2,1.4-4.9C374.6,262,372.8,260.6,370.7,259.5z M366.5,327.7c-3.1,4.7-2.7,6.2,2.2,9.2
				C372.8,332.8,370.3,330.3,366.5,327.7z M380.6,267.9c-2.8,3.7-2.7,4.2,0.2,7c0.2,0.2,0.4,0.4,0.5,0.5c0.9,0.7,1.8,2.3,3,0.7
				c1-1.3,1.3-2.9,0.1-4.3C383.3,270.4,381.9,269.2,380.6,267.9z M375.3,336.1c-3,3.2-3.1,4.3-0.5,7.6c0.8,1,1.5,2.5,2.9,1.3
				c1.1-1,2.2-2.5,0.9-4.4C377.4,339.2,376.3,337.7,375.3,336.1z M394.2,282c-0.1-1-3.4-4.7-4.2-4.8c-0.6-0.1-1,0.4-1.4,0.9
				c-1.9,2.6-0.1,4.1,1.4,5.8c0.7,0.8,1.3,1.9,2.4,1.3C393.5,284.6,393.8,283.1,394.2,282z M382.7,346.2c-2.5,3.6-2,5.9,1.9,8.7
				C387.5,352,386.9,349,382.7,346.2z M400.2,294.5c2.9-3.5,2.9-3.8-0.2-7c-0.7-0.7-1.3-2-2.4-0.9c-0.9,0.9-1.7,2.2-1,3.5
				C397.5,291.8,398.6,293.4,400.2,294.5z M406.2,294.6c-2.5,3.3-2.6,3.7-0.3,6.8c0.6,0.9,1.2,2.6,2.5,1.6c1.3-1,1.9-2.7,0.9-4.4
				C408.5,297.1,407.5,295.7,406.2,294.6z M413.4,304c-2.7,4.3-2.6,5.2,1.4,9C417.7,309.9,417.5,308.9,413.4,304z M397.4,375.1
				c2.6-3.6,2.4-5.8-1.1-9.5C393.8,369.9,393.9,370.4,397.4,375.1z M391.5,364.2c2.6-3.2,2.9-4.2-1.4-8.7
				C387.3,358.8,387.7,361.6,391.5,364.2z M420.7,323.6c3-2.4,2.5-4.9-0.9-8.8C417.5,317.6,417.6,318.5,420.7,323.6z M402.2,377.4
				c-2.7,2.9-2.7,6.6-0.4,11.2C404.8,385.1,402.3,381.5,402.2,377.4z M424.6,326.3c-1.5,4.7-1.4,6.8,0.4,10.6
				C427.1,334.1,427,330,424.6,326.3z"/>
			<path class="st1" d="M287.1,290.2c-0.9,2.8-3.3,3.4-5.2,4.6c-1.7,1-2,1.8-0.7,3.6c3,4,2.9,4.1,6.8,1.3c1-0.7,2.1-1.4,3.1-2.1
				c3.8-2.6,6-2,8.7,2.1c-0.2,1.1-1.2,1.3-1.9,1.8c-2.9,1.9-5.9,3.8-8.8,5.6c-1.2,0.8-1.6,1.7-0.8,3c5.6,9,11.2,18,16.8,27
				c1,1.6,1.9,1.1,3.1,0.3c6.5-4.6,13.1-9.1,19.7-13.7c2-1.4,5.9-0.3,7,2c0.5,1.1-0.3,1.4-0.9,1.8c-2.2,1.5-4.4,3-6.6,4.4
				c-1.2,0.8-1.7,1.5-0.7,2.9c0.9,1.2,1.4,3.1,3.4,1.6c2.6-1.9,5.2-3.9,7.9-5.8c1.5-1.1,5.4,1,5.5,2.9c0.1,1.2-0.9,1.6-1.6,2.1
				c-7.9,5.3-15.7,10.6-23.6,15.9c-30.3,20.3-61.4,38.9-94.1,54c-14.8,6.8-29.8,13.1-45.3,17.4c-9,2.5-18.2,4.2-27.5,5.5
				c-6.1,0.8-12.2,0.1-18.1-1.4c-5.6-1.5-9.9-5-13.1-10.2c-4.5-7.3-8.9-14.6-13.4-21.9c-7.4-12.2-14.5-24.6-22.2-36.5
				c-0.4-0.6-0.9-1.3-0.9-2.1c0.6-0.6,0.9,0.1,1.2,0.3c4.6,5.7,10.9,6.7,17.2,7.2c11.7,0.9,23.1-1.4,34.4-4.5
				c35.7-9.9,68.8-26.9,101.2-45.7c13.5-7.8,26.7-16,39.6-24.9C281.6,285.8,282.8,286,287.1,290.2z M243.3,335.6
				c6,9.8,11.7,19.3,17.5,28.8c1,1.7,2.1,1.2,3.3,0.4c4.8-2.9,9.6-5.8,14.4-8.8c6.9-4.3,13.8-8.6,20.7-12.9c0.8-0.5,2.2-0.9,1.2-2.5
				c-5.6-9.1-11.2-18.2-16.8-27.3c-0.8-1.3-1.7-1.3-2.9-0.6C268.4,320.5,256.2,328.2,243.3,335.6z M204.7,356.2
				c5,8.2,9.8,16.3,14.7,24.3c4.4,7.2,2.6,6.2,9.5,3.2c9-4,17.6-8.9,26.2-13.9c1-0.6,2.2-1.1,1.2-2.7c-5.6-9-11.2-18-16.7-27
				c-0.8-1.3-1.8-1.2-3-0.6C226,345,215.5,350.5,204.7,356.2z M218.4,388.8c-6.1-10-12-19.6-17.8-29.2c-0.8-1.4-1.8-1.2-2.9-0.6
				c-8.6,4.2-17.5,8-26.4,11.4c-1.7,0.6-1.7,1.4-0.8,2.9c5.4,8.9,10.7,17.7,16,26.6c0.7,1.2,1.6,1.6,2.9,1.1c4.3-1.7,8.7-3.2,13-5.1
				C207.6,393.8,212.8,391.4,218.4,388.8z M182.5,403.1c-0.2-0.6-0.2-0.9-0.3-1.1c-5.7-9.3-11.3-18.5-17-27.8
				c-0.8-1.3-1.8-1.2-3-0.8c-4.2,1.6-8.4,3.2-12.8,4.2c-4.4,1-8.8,2-13.3,3.1c0.1,0.5,0.1,0.8,0.2,1c5.6,9.3,11.2,18.7,16.8,28
				c0.9,1.5,2.1,1.9,3.8,1.4c4.5-1.3,9.1-2.4,13.7-3.7C174.7,406.3,178.6,405,182.5,403.1z M148.9,412.6c0.2-1.4-0.3-2-0.7-2.7
				c-4.8-8.1-9.7-16.1-14.5-24.3c-1.8-3-3.9-4.1-7.2-3.5c-4.5,0.9-9,1.4-13.5,0.6c-4-0.6-8.2-0.6-12.1-2.5c0.3,1.1,0.8,2,1.3,2.9
				c4.4,7.3,9.1,14.5,13.1,22c2.8,5.4,6.9,7.3,12.1,7.9c1,0.1,1.9,0.2,2.9,0.3C136.5,413.8,142.7,413.3,148.9,412.6z M264.7,306.1
				c4.2,7.4,3.3,6.6,8.9,2.9c5.9-3.9,6.1-2.2,1.5-9.2c-0.1-0.1-0.3-0.2-0.5-0.3C271.4,301.7,268.2,303.9,264.7,306.1z M249.9,315.1
				c1,1.6,1.9,2.9,2.6,4.4c0.8,1.4,1.7,1.7,3,0.8c2.6-1.6,5.2-3.2,7.8-4.9c-1-1.6-1.8-3.1-2.7-4.5c-0.6-1-1.5-1.5-2.5-0.9
				C255.4,311.6,252.7,313.3,249.9,315.1z M236.3,323.3c3,6.5,3,6.5,8.4,3.3c0.3-0.2,0.6-0.3,0.9-0.5c3.4-2,3.4-2,1.2-5.3
				c-0.2-0.3-0.4-0.6-0.6-0.9c-0.8-1.4-1.8-1.8-3.2-0.8C240.8,320.5,238.6,321.8,236.3,323.3z M320.5,336.9
				c-3.2,1.5-9.7,6.2-10.7,7.7c2.1,4.2,2.1,4.2,5.8,1.8c0.5-0.3,1-0.6,1.4-1c2-1.6,4.6-2.5,6.1-5C322.3,339.1,321.4,338,320.5,336.9
				z M234.2,331.7c0.1-1.2-2.6-5-3.6-4.9c-2.7,0.5-5,2.2-7.3,3.7c-0.2,0.1-0.2,0.5-0.3,0.7c-0.1,0.9,2.9,4.9,3.7,5
				c0.6,0.1,7.2-3.6,7.4-4.1C234.1,332.1,234.1,331.9,234.2,331.7z M216.9,333.7c-1.2,0.6-2.4,1.2-3.5,1.9c-4.1,2.2-4,2.2-1.3,6.3
				c1,1.5,1.8,1.6,3.2,0.7c1.2-0.8,2.5-1.3,3.6-2.1c0.8-0.5,2.4-0.7,1.7-2.3C219.7,336.4,218.9,334.5,216.9,333.7z M304.1,347.5
				c-2.9,1.9-5.3,3.8-8,5.3c-2.2,1.2-1.3,2.4-0.6,4c0.8,1.9,1.9,1.6,3.1,0.7c1.2-0.9,2.5-1.6,3.7-2.5c1.6-1.2,3.5-1.8,4.5-3.9
				C305.9,349.9,305,348.7,304.1,347.5z M288.7,357.4c-2.4,1.5-4.7,2.9-7.1,4.3c-1.9,1.1-2.2,2.4-0.6,4.1c0.5,0.5,0.7,1.2,1.6,1.4
				c1.9-1.2,3.8-2.4,5.8-3.6C291.7,361.5,291.8,360.7,288.7,357.4z M197.2,343.8c0.9,1.5,1.5,2.6,2.2,3.7c0.4,0.7,0.7,1.6,1.7,1.7
				c1,0.1,6.3-2.6,6.4-3.3c0.5-2.4-1.6-3.4-2.5-5.1c-0.1-0.1-0.3-0.2-0.6-0.3C202.2,341.5,199.9,342.5,197.2,343.8z M276.7,370
				c-2.4-4.2-2.4-4.2-5.9-1.9c-1.2,0.8-2.4,1.5-3.6,2.2c-0.8,0.5-1.9,0.9-1.2,2.3c0.7,1.3,1.4,3.2,3,2.5
				C271.7,373.8,274.6,372.5,276.7,370z M195.1,350.7c-0.6-1.5-1.4-3-2.9-3.9c-0.7-0.4-6,1.8-6.3,2.7c-0.7,1.6,0.8,2.3,1.3,3.4
				c0.9,1.9,2.1,2.4,3.9,1.2c0.9-0.6,1.9-0.9,2.9-1.4C194.6,352.3,195.1,351.8,195.1,350.7z M252.1,379.5c1,1.5,1.5,2.9,2.8,3.7
				c1.4-0.8,2.9-1.6,4.3-2.4c3.9-2.3,3.9-2.7,1-6.2c-0.1-0.1-0.3-0.2-0.5-0.3C257.2,375.9,254.3,377,252.1,379.5z M173.8,354.5
				c1.5,5.1,2.6,5.7,6.8,4c0.2-0.1,0.3-0.1,0.4-0.2c0.9-0.5,2.7-0.6,1.8-2.3c-0.8-1.6-1.3-4.2-3.7-3.7
				C177.3,352.7,175.5,353.7,173.8,354.5z M239.2,385.7c0.5,2.1,1.1,4.1,3.1,3.6c2.5-0.6,4.8-1.8,7-3.6c-0.4-0.7-0.6-1.1-0.8-1.6
				c-0.9-2.3-2.3-2.7-4.2-1.3C242.7,383.9,241,384.7,239.2,385.7z M229.9,395.9c1.4-0.7,2.8-1.4,4.2-2.1c2.5-1.3,2.6-2.3,0.6-4.4
				c-0.8-0.9-1.6-1-2.6-0.5c-1.2,0.7-2.5,1.3-3.7,2c-0.7,0.5-2.2,0.6-1.5,2.1C227.5,394.4,228.4,395.6,229.9,395.9z M171.2,361.5
				c-1.9-5.1-2.2-5.3-6.6-3.5c-0.1,0-0.2,0-0.2,0.1c-1,0.4-2.3,0.9-1.6,2.3c0.8,1.5,1.4,4.2,3.6,3.6
				C168,363.5,169.8,362.8,171.2,361.5z M214.3,397.7c2.2,4.3,5.8,4.7,8.9,1.2c0.4-0.4,0.5-0.8,0.3-1.4c-0.7-2.7-2.1-3.4-4.4-2.2
				C217.5,396.1,216,396.9,214.3,397.7z M151.3,363.4c2.1,4.6,2.8,5,6.3,3.6c0.9-0.4,2.5-0.6,1.9-2.1c-0.6-1.6-1.2-3.8-3.4-3.5
				C154.5,361.7,152.8,362.1,151.3,363.4z M202.9,402.8c2,4.2,2,4.2,5.7,2.8c0.5-0.2,1.1-0.4,1.6-0.6c1.9-0.6,1.7-1.9,0.7-3.2
				c-0.9-1.2-2.1-1.9-3.6-1.1C205.8,401.4,204.4,402,202.9,402.8z M180.1,410.9c1.9,4.9,5,5.4,8.4,1.5c-0.5-0.8-1-1.5-1.5-2.3
				c-0.4-0.6-0.9-1.6-1.7-1C183.7,410.1,181.8,410,180.1,410.9z M191.5,407.4c0.2,0.4,0.3,0.8,0.5,1.2c0.6,1,0.9,2.7,2.1,2.6
				c1.8-0.1,3.6-0.9,5.2-2c0.4-0.3,0.3-1,0.2-1.5c-0.4-1.7-2.4-2.9-4-2.3C194.2,405.9,192.7,406.3,191.5,407.4z M140.1,366.7
				c0.6,1.5,1.4,2.6,2.4,3.5c0.7,0.7,4.9,0.3,5.5-0.6c1.1-1.5-0.3-2.6-0.9-3.7c-0.6-1.2-1.8-1.1-2.8-0.8
				C142.9,365.6,141.7,366.1,140.1,366.7z M137.4,371.9c-1.4-3.4-2.8-4.3-5.6-3.6c-0.9,0.2-2.5,0.1-2.2,1.7c0.4,1.6,1,3.6,3.1,3.4
				C134.2,373.3,135.9,373,137.4,371.9z M177.2,416.7c-1.2-3.5-4.6-4.7-7.3-2.7c-0.5,0.3-0.6,0.7-0.6,1.3c0.3,1.9,2.1,3.4,3.9,3
				C174.5,417.9,175.9,417.6,177.2,416.7z M126,374.3c-1.3-4.5-4.1-5.5-7.7-2.9C120.1,375.5,121.1,375.9,126,374.3z M147,418.4
				c0.9,3.8,3.9,5.3,6.9,3.8c1.3-0.7,1.1-1.5,0.3-2.5C152.1,417.3,149.6,417.9,147,418.4z M166,419.8c-0.1-4-3.9-4.6-7.8-2.4
				C159.4,421.2,161.6,421.6,166,419.8z M106.8,371.8c1.4,3.6,3.6,4.1,8,3.2C113.9,371.4,109.7,369.7,106.8,371.8z M122.8,416.2
				c0.9,3.4,5.8,6.3,9.1,5.5C129.8,417.9,126.6,416.7,122.8,416.2z M143.6,422.7c-1.2-3.2-4.6-4.9-7.2-3.8c-1.2,0.5-0.7,1.3-0.2,2.1
				C137.7,423.2,140.1,423.8,143.6,422.7z M93.8,368.4c1.1,3.6,4.7,5.7,8.7,5.3C101.3,371.3,99.9,370.4,93.8,368.4z"/>
			<path class="st1" d="M307.7,395.3c0.7,1.6-0.5,2.2-0.5,3.5c1.9,1.1,4.1,2.4,6.2,1.6c1.9-0.7,2.7-3.3,3.2-5.5
				c-0.9-1-1.8-0.5-2.6-0.5c-0.6,0-1.2,0.1-1.4-0.7c-0.2-0.7,0.3-1.1,0.7-1.5c2.4-2.3,4.9-3.9,8.3-2.5c2.6,1.1,5.4,1.1,8,2.3
				c1.5,0.7,2.1-0.8,2.7-2c3.3-7.2,6.8-14.3,9.9-21.6c3.3-7.9,8.8-14.2,12.4-21.9c0.7-1.4,1.8-1.7,3-0.6c1.5,1.5,3.5,2.6,4.2,5
				c-1,0.6-1.8,0.1-2.6-0.1c-0.9-0.2-1.8-0.5-2.6,0c-1.1,0.6-2.3,1.4-2.3,2.9c0.1,1.4,1.5,1.4,2.5,1.7c3.2,0.9,3.5,0.7,5.5-3.6
				c0.9-0.2,1.7,0.4,2,1.1c1.4,3.5,4.7,4.9,7,7.4c0.7,0.8,1.7,1.4,1.6,3c-1.8,0.7-3.6,0.2-5.4-0.1c-4.7-0.8-9.4-1.6-14.2-2.5
				c-1.4-0.3-2.3,0-3,1.5c-4.4,9.9-8.9,19.7-13.3,29.5c-0.2,0.4-0.2,0.8-0.4,1.4c-0.1,0.5,10.4,2.1,11.2,2.2
				c4.6,0.8,9.3,1.9,13.9,2.1c2.6,0.1,4.2-0.8,5.4-3.4c3.2-7.1,6.6-14,9.5-21.2c0.5-1.2,0.5-3.4,2.6-2.5c1.7,0.7,2.4,3,1.5,4.9
				c-2.1,4.5-4.2,9-6.3,13.5c-1.2,2.7-2.8,5.1-3.7,8.2c7.4,1.4,13.8-1.4,19.9-5.3c0.3,0.4,0.6,0.6,0.6,0.9c0.6,2.4,0.5,4.8,0.4,7.3
				c-0.2,6.4-3.1,10.3-8.2,12.7c-4.7,2.1-9.6,3.2-14.6,3.6c-7.7,0.7-15.2-0.7-22.7-1.7c-16.1-2.2-31.6-6.7-47.2-11.1
				c-1.2-0.3-2.2-1.1-2.8-2.3C299.9,399.2,303.8,397.2,307.7,395.3z M324.5,403.8c1.2,0.1,3.6-2.9,3.6-4.9c0-2.1-1.6-1.1-2.5-1.4
				c-0.4-0.1-0.8-0.2-1.2-0.3c-2.4-0.6-4.6,0.9-4.8,3.8c-0.3,2.8,2,2,3.4,2.5C323.4,403.7,323.9,403.7,324.5,403.8z M335.2,406.6
				c1.7,0.2,4.3-2.4,4.1-4.6c-0.2-2.8-2.8-1.9-4.4-2.5c-1.4-0.5-4,2.5-3.8,4.6C331.5,406.7,334,405.6,335.2,406.6z M342.4,407.4
				c5,2.1,8.1,0.2,8.3-4.8C345.7,400.9,343.7,401.9,342.4,407.4z M361.8,404.3c-5.1-1.6-6-1.1-8.3,4.8
				C359.3,410.6,361,409.7,361.8,404.3z M373.2,404.2c-6.3-0.6-5.6-1-8.2,5.3C369.2,411.5,371.4,410.2,373.2,404.2z M376.2,409.2
				c3.5,1.2,7.9-2.3,8.4-6.7C380.1,402.4,378,404.1,376.2,409.2z"/>
			<path class="st1" d="M286.5,112.6c-3.8-6.5-7.6-12.1-13.6-15.3c-1.1-0.6-1.3-1.5-0.4-2.6c0.4-0.4,0.8-0.9,1.3-1.3
				c1.4-1.3,7.3-4.1,8.7-4.1c3.7-0.2,6.8,1.3,9.6,3.7c5.2,4.4,8.9,10,12.1,16.1c8.4,16.4,13.9,34.1,18.5,52.1
				c1.7,6.6,3.7,13,4.7,20.4c-4.1-2.8-7.5-5.7-11-8.6c0.8-1.3,2.1-0.8,3.1-1.7c-0.5-1.9-1-3.8-1.5-5.8c-0.2-0.8-0.7-1.2-1.4-1.2
				c-1.7,0.1-3.4-0.1-4.9,0.6c-0.5,1.8,1.6,3,0.6,5.2c-2.9-1.7-6.3-2.5-7.2-6.9c-0.6-2.8-1.6-5.4-2-8.2c-0.5-2.9-1.9-3.1-4.2-2.9
				c-11.1,1.1-22.1,2-33.3,1.5c-3.6-0.2-7.3-0.4-10.9-0.5c-1.8,0-2.5-0.9-2.3-2.8c0.2-2,0.2-4,1.2-5.8c1,0.4,1.8,0.9,2.1,1.8
				c1.4,3.5,1.4,3.5,4.9,2.8c0.3-2.1-0.8-3.7-1.5-5.5c-0.5-1.2-1.7-1.1-2.8-0.9c-0.8,0.2-1.7,0.3-2.2-0.5c-0.6-1,0.1-1.9,0.5-2.6
				c0.4-0.7,1-1.4,1.6-2c0.3-0.4,0.8-0.9,0.5-1.4c-2-3.2,0.8-5.8,0.6-8.7c1.8-0.2,2.1,1.1,2.5,2.2c2.2,5.4,4.4,10.8,6,16.5
				c0.5,1.9,1.4,2.9,3.3,2.8c9.8-0.3,19.6-1,29.4-1.8c0.6,0,1.1-0.1,1.6-0.7c0-1.9-0.9-3.5-1.5-5.2c-2.2-7.4-5.1-14.5-8.4-21.5
				c-0.8-1.7-1.8-2.4-3.6-2.4c-7.2,0.2-14.4,0.9-21.6,1.6c-0.5,0-1,0.1-1.5,0.1c-1.2-0.1-2.9,0.4-3-1.3c0-1.7,0.9-3.5,2.9-3.6
				c3.6-0.3,7.3-0.6,10.9-0.9C278.1,113.2,282.1,112.9,286.5,112.6z M304.3,140.2c1.6,7.1,1.9,7.4,7.5,5.9
				C312.5,140.5,309.9,138.4,304.3,140.2z M308.1,152.7c0,1.6,0.7,3,1.1,4.5c0.6,2.1,4.3,3,5.8,1.6c0.3-0.3,0.4-0.7,0.5-1.1
				C315.6,152.5,312.5,150.4,308.1,152.7z M305.4,134.6c3.2-0.1,3.4-0.4,2.2-3.7c-0.2-0.6-0.4-1.2-0.7-1.7c-0.7-1.3-5.3-1.7-6.2-0.6
				c-0.1,0.2-0.2,0.5-0.2,0.7C300.3,132.1,302.7,134.7,305.4,134.6z M295.8,116.9c-0.1,2,1.2,3.1,1.6,4.6c0.5,1.6,4.9,2.3,5.9,1.1
				c0.2-0.2,0.3-0.4,0.3-0.7c0.4-2.1-2.1-5.4-4.1-5.4C298.4,116.6,297.2,116.8,295.8,116.9z M292.7,101.1c-1.4-4.5-5.2-6.4-9.9-4.8
				C285.4,99.7,287.8,103.3,292.7,101.1z M298.9,111.4c-0.6-2.2-1.4-4.5-3.5-5.3c-1.5-0.5-3.4-0.6-4.6,1
				C292.7,112.3,293.9,112.9,298.9,111.4z"/>
			<path class="st1" d="M144.3,350c-0.7-1.6,0.2-2.3,0.7-3.1c2.2-3.1,2.3-3.1-0.4-6.3c-1.6,0.9-2.5,2.7-3.5,4.2
				c-1.4,2.3,1.4,3.3,1.5,5.1c-2.4,2-3.4,2.2-5.6,0.9c-2.2,3.1-5.7,3-8.9,4c0-1.7,0.8-2.7,1.6-3.8c3.4-4.7,6.8-9.5,10.3-14.1
				c1-1.3,1.3-2.5,0.3-4.1c-5.6-9.2-11.2-18.4-16.8-27.7c-0.1-0.2-0.3-0.4-0.5-0.5c-1,0.4-1.6,1.3-2.1,2.1
				c-4.6,6.5-9.2,13.1-13.8,19.6c-1.6,2.3-1.8,4.1-0.2,6.6c4.1,6.4,7.9,12.9,11.9,19.4c0.7,1.2,1.5,2.3,1.6,3.8
				c-3.3,1.6-4,1.4-5.9-1.9c-3.5-5.9-7.1-11.9-10.6-17.8c-0.3-0.4-0.6-0.8-0.9-1.1c-0.8-0.1-1.1,0.5-1.3,1.1
				c-2.2,6-5.2,11.7-4.6,18.5c0.1,1.7-0.6,2.6-2.2,1.8c-1.6-0.7-3.1-1.5-4.3-2.9c-0.9-1-1.4-2.4-3.1-2c-0.6,0.2-1.1-0.7-1.3-1.3
				c-1.9-4.5-2.7-9-1.5-13.9c1.9-7.9,5.2-15.1,9.2-21.8c9.3-15.5,20.6-29.2,32.4-42.4c2.8-3.1,5.5-6.2,8.3-9.4
				c0.5-0.6,0.9-1.3,2.3-1.4c-0.2,4.8-0.7,9.5-1.3,14.2c-1.1,0.2-1.5-0.7-2.3-0.9c-1.6,1.3-3.9,2.3-4.5,4.4
				c-0.6,2.3,1.6,3.7,2.7,5.4c1.8-0.4,1.8-3.1,3.7-3c1.5,3.2,1.1,7-1,9.5c-2,2.4-3.9,4.7-6,7c-1.4,1.5-1.4,2.7-0.3,4.4
				c5,8.2,10.1,16.5,15,24.9c3.3,5.7,5.1,12.2,8.4,17.9c0.5,0.8,0.4,1.6-0.3,2.1C148.7,348.5,146.5,349.5,144.3,350z M124.7,283.8
				c-1.7,0.6-2.5,2-3.5,3.2c-1.7,2-1.4,3.5,0.9,6c1.8,1.9,2.6-0.1,3.5-1.2c3-3.5,2.6-2.4,0.4-6.3
				C125.6,284.9,125.2,284.4,124.7,283.8z M116.1,292.9c-0.9,1.2-1.7,2.1-2.4,3c-1.7,2.3-1.4,5.2,0.7,6.9c0.7,0.6,1.4,0.7,2.1-0.1
				c3-2.8,3.2-4,0.9-7.7C117.1,294.4,116.7,293.8,116.1,292.9z M108.6,303.1c-4.2,3.5-4.4,5.7-0.7,9.9
				C112.4,310.6,112.6,307.7,108.6,303.1z M101.5,323.5c4.3-5.5,4.3-6.5,0-10.6C97.4,318.9,97.2,316.7,101.5,323.5z M91.5,345.3
				c2.7-4.6,2.3-7.3-1.4-11.2C87.9,340.8,88.2,342.9,91.5,345.3z M95.5,323.1c-3.6,4.1-3.4,7.9,0.5,10
				C99.3,327.7,99.3,328.7,95.5,323.1z"/>
			<path class="st1" d="M243,401.3c0.1-1.3,1.1-1.6,2-2c32.9-16.7,64.2-36.5,94.6-58c1.7-1.2,3.3-2.5,5-3.8c1.5-1.2,2.9-1.2,4.2,0.2
				c1.2,1.3,0.7,2.6-0.1,4.1c-13.4,25.2-33,42.5-57.6,53c-10.2,4.3-21,6.5-32,7.2c-4.7,0.3-9.4,0-14,0.1
				C244.3,402,243.5,402.1,243,401.3z"/>
			<path class="st1" d="M352.7,231.5c-1.2,0.2-2-0.6-2.8-1.2c-28.6-22.4-59-41.4-90.3-58.8c-2.7-1.5-5.3-3.1-8-4.5
				c-1.6-0.8-2.4-1.8-2-3.9c0.4-2.2,1.8-1.9,3.2-1.9c22.5,0.3,43.1,6.9,61.8,20.6c11.3,8.3,21,18.4,28.4,30.9c3,5.1,6.4,10,9,15.5
				C352.5,229.2,353.2,230.2,352.7,231.5z"/>
			<path class="st1" d="M163.1,211.9c1.3,0.8,1.1,1.8,1,2.9c-2.7,32.1-3.6,64.2-2.4,96.4c0.4,9.5,0.8,18.9,1.3,28.4
				c0.1,1.3,0.1,2.5-0.8,3.5c-1.5,1.8-3,1.6-4-0.5c-10.3-20.5-16.1-42.3-15.1-65.9c0.8-19.7,5.6-38.2,14.8-55.3
				C159.6,218.3,161.3,215.1,163.1,211.9z"/>
			<path class="st2" d="M242.4,281.3c0-5.5,0-11,0-16.5c0-2.5,0.6-2.9,2.6-1.7c8.9,5.5,17.8,11.1,26.8,16.7c1.6,1,1.3,1.9,0.2,3
				c-0.4,0.3-0.8,0.6-1.2,0.8c-8.2,5.2-16.3,10.5-24.5,15.7c-1,0.6-2,1.7-3.1,1c-1.2-0.7-0.7-2.2-0.7-3.4
				C242.4,291.7,242.4,286.5,242.4,281.3C242.4,281.3,242.4,281.3,242.4,281.3z"/>
		</g>
	</g>
</g>
<g id="Layer_2">
</g>
</svg>
