<svg width="18" height="18" viewBox="0 0 18 18" fill="none" xmlns="http://www.w3.org/2000/svg">
<circle r="9" transform="matrix(1 0 0 -1 9 9)" fill="#C4C4C4"/>
<path d="M9 10.5293C9.61161 10.5293 10.1074 10.0335 10.1074 9.42188C10.1074 8.81026 9.61161 8.31445 9 8.31445C8.38839 8.31445 7.89258 8.81026 7.89258 9.42188C7.89258 10.0335 8.38839 10.5293 9 10.5293Z" fill="white"/>
<path d="M12.2344 6.1875H10.6875L10.125 5.625H7.875L7.3125 6.1875H5.76562C5.37729 6.1875 5.0625 6.50229 5.0625 6.89062V11.6719C5.0625 12.0602 5.37729 12.375 5.76562 12.375H12.2344C12.6227 12.375 12.9375 12.0602 12.9375 11.6719V6.89062C12.9375 6.50229 12.6227 6.1875 12.2344 6.1875ZM9 11.3906C7.91271 11.3906 7.03125 10.5092 7.03125 9.42188C7.03125 8.33458 7.91271 7.45312 9 7.45312C10.0873 7.45312 10.9688 8.33458 10.9688 9.42188C10.9688 10.5092 10.0873 11.3906 9 11.3906Z" fill="white"/>
</svg>
