<svg width="154" height="25" viewBox="0 0 154 25" fill="none" xmlns="http://www.w3.org/2000/svg">
<path d="M132.288 1.63211C132.785 1.60954 133.304 1.56439 133.847 1.54182C133.847 1.24838 133.847 0.954943 133.847 0.661502C134.208 0.593785 134.524 0.548636 134.863 0.706643C134.931 0.977511 134.931 1.24838 134.841 1.5644C134.57 1.58697 134.321 1.60954 134.005 1.63211C134.005 2.1287 134.005 2.64787 134.005 3.21218C134.728 3.21218 135.428 3.21218 136.151 3.21218C136.151 3.97964 136.151 4.72452 136.151 5.49198C135.428 5.49198 134.683 5.49198 133.892 5.49198C133.892 4.79224 133.892 4.04735 133.892 3.25732C133.327 3.25732 132.83 3.25732 132.265 3.25732C132.265 2.71559 132.265 2.26414 132.265 1.79012C132.265 1.7224 132.288 1.67726 132.288 1.63211Z" fill="white"/>
<path d="M55.7179 4.0022C55.7179 4.09248 55.7405 4.20535 55.605 4.27306C55.5824 4.22792 55.5598 4.1602 55.5372 4.09248C55.605 4.04734 55.6502 4.02477 55.7179 4.0022Z" fill="#0E8E4F"/>
<path d="M132.288 1.63214C132.288 1.67729 132.265 1.72243 132.265 1.76758C132.175 1.69986 132.197 1.65471 132.288 1.63214Z" fill="#93CEAD"/>
<path d="M132.288 1.63211C132.785 1.60954 133.304 1.56439 133.847 1.54182C133.847 1.24838 133.847 0.954943 133.847 0.661502C134.208 0.593785 134.524 0.548636 134.863 0.706643C134.931 0.977511 134.931 1.24838 134.841 1.5644C134.57 1.58697 134.321 1.60954 134.005 1.63211C134.005 2.1287 134.005 2.64787 134.005 3.21218C134.728 3.21218 135.428 3.21218 136.151 3.21218C136.151 3.97964 136.151 4.72452 136.151 5.49198C135.428 5.49198 134.683 5.49198 133.892 5.49198C133.892 4.79224 133.892 4.04735 133.892 3.25732C133.327 3.25732 132.83 3.25732 132.265 3.25732C132.265 2.71559 132.265 2.26414 132.265 1.79012C132.265 1.7224 132.288 1.67726 132.288 1.63211Z" fill="white"/>
<path d="M55.7179 4.0022C55.7179 4.09248 55.7405 4.20535 55.605 4.27306C55.5824 4.22792 55.5598 4.1602 55.5372 4.09248C55.605 4.04734 55.6502 4.02477 55.7179 4.0022Z" fill="#0E8E4F"/>
<path d="M132.288 1.63214C132.288 1.67729 132.265 1.72243 132.265 1.76758C132.175 1.69986 132.197 1.65471 132.288 1.63214Z" fill="#93CEAD"/>
<path d="M55.7179 4.0022C56.7346 4.0022 57.7513 4.0022 58.8358 4.0022C59.717 5.53712 60.6207 7.07203 61.547 8.6521C62.2023 7.52348 62.8349 6.46258 63.4449 5.40168C63.7612 4.99538 63.9872 4.47622 64.2809 4.0022C66.2465 4.0022 68.2347 4.0022 70.2908 4.0022C71.1041 6.34972 71.9175 8.69724 72.7987 11.2705C73.5668 8.76496 74.2672 6.41744 75.0128 4.02477C75.9392 4.02477 76.9785 4.02477 78.1307 4.02477C78.8311 6.32715 79.5541 8.6521 80.3675 11.2479C81.2487 8.71981 82.0394 6.41743 82.8528 4.06991C83.8695 4.06991 84.9088 4.06991 86.0159 4.06991C84.5247 8.31351 83.0561 12.5797 81.565 16.8458C80.8194 16.8458 80.119 16.8458 79.3734 16.8458C78.4696 14.0017 77.5659 11.1351 76.6622 8.26837C76.617 8.24579 76.5492 8.2458 76.504 8.22322C75.6229 11.0673 74.7417 13.8889 73.838 16.8007C73.1827 16.8007 72.4597 16.8007 71.6238 16.8007C70.2004 12.7377 68.7544 8.60695 67.2632 4.36336C66.2465 6.124 65.2976 7.77177 64.3486 9.39698C64.2131 9.6227 64.1227 9.84843 63.9646 10.0516C63.1512 11.1576 62.8801 12.3765 62.993 13.7309C63.0834 14.7466 63.0156 15.7624 63.0156 16.8233C62.0441 16.8233 61.1178 16.8233 60.1236 16.8233C60.1236 15.3561 60.1236 13.8889 60.1236 12.4217C60.1236 12.0605 60.0559 11.7671 59.8525 11.4511C59.0392 10.0742 58.2484 8.67467 57.4576 7.27518C56.9605 6.41744 56.4861 5.55969 55.9664 4.70194C55.8761 4.54393 55.7179 4.43107 55.5823 4.29563C55.7405 4.20535 55.7179 4.09249 55.7179 4.0022Z" fill="white"/>
<path d="M11.9541 16.8459C13.129 14.1598 14.2587 11.5866 15.3884 9.01331C16.0662 7.43325 16.744 5.87575 17.3992 4.29569C17.5122 4.04739 17.6477 3.97968 17.8736 3.97968C18.687 3.97968 19.523 3.97968 20.3815 3.97968C22.2116 8.24584 24.0643 12.4894 25.917 16.8008C24.8551 16.8008 23.8384 16.8008 22.8216 16.8008C22.4376 15.9204 22.0535 15.0175 21.6468 14.0921C19.8619 14.0921 18.0996 14.0921 16.2695 14.0921C15.8854 14.995 15.4787 15.9204 15.072 16.8459C12.9934 16.8459 10.9148 16.8459 8.85881 16.8459C8.27138 16.8459 8.15841 16.3267 7.90988 16.0107C6.93835 14.7467 6.01202 13.4375 5.06309 12.1734C4.99531 12.0606 4.85975 11.9929 4.76937 11.88C4.27231 12.2411 3.956 12.7603 3.52672 13.2118C3.52672 14.3629 3.52672 15.5593 3.52672 16.8008C2.5552 16.8008 1.65146 16.8008 0.702525 16.8008C0.679932 12.5346 0.679932 8.29099 0.679932 4.00225C1.60627 4.00225 2.5552 4.00225 3.52672 4.00225C3.52672 5.69517 3.52672 7.34295 3.52672 9.14874C5.15346 7.36552 6.71242 5.69517 8.27138 4.00225C9.44624 4.00225 10.6211 4.00225 11.8863 4.00225C10.1692 5.9209 8.51991 7.74925 6.80279 9.64533C8.51991 12.0154 10.2144 14.4081 11.9541 16.8459ZM17.4218 11.4737C18.4837 11.4737 19.5004 11.4737 20.5623 11.4737C20.0426 10.2548 19.523 9.08102 18.9807 7.7944C18.4611 8.99073 17.9866 10.0742 17.5122 11.1577C17.4896 11.248 17.467 11.3383 17.4218 11.4737Z" fill="white"/>
<path d="M151.334 15.1078C151.492 14.9273 151.424 14.7241 151.424 14.5435C151.424 11.9026 151.424 9.23902 151.424 6.59806C151.424 5.87575 151.153 5.53716 150.385 5.53716C145.957 5.55973 141.551 5.53716 137.077 5.53716C137.077 4.7697 137.077 4.00224 137.077 3.21221C137.258 3.21221 137.439 3.18964 137.62 3.18964C142.138 3.18964 146.657 3.18964 151.176 3.18964C152.531 3.18964 153.661 4.31825 153.661 5.69517C153.661 8.96815 153.661 12.2637 153.661 15.5367C153.661 16.9136 152.644 17.9294 151.289 17.9294C147.358 17.9294 143.426 17.9294 139.495 17.9294C138.162 17.9294 137.258 17.0265 137.258 15.7173C137.258 13.5503 137.258 11.3608 137.258 9.12616C136.061 9.12616 134.976 9.12616 133.869 9.12616C133.869 8.31356 133.869 7.56867 133.869 6.77864C137.145 6.77864 140.421 6.77864 143.72 6.77864C144.398 8.33613 145.053 9.91619 145.799 11.6317C146.499 9.91619 147.132 8.33613 147.764 6.75607C148.442 6.75607 149.097 6.75607 149.843 6.75607C148.826 9.32931 147.809 11.8348 146.793 14.3629C146.092 14.3629 145.414 14.3629 144.691 14.3629C144.036 12.6249 143.381 10.8868 142.703 9.12616C141.641 9.12616 140.602 9.12616 139.472 9.12616C139.495 11.2705 139.427 13.3923 139.495 15.5818C140.06 15.5818 140.376 15.5818 140.692 15.5818C143.991 15.5818 147.29 15.5818 150.611 15.5818C150.905 15.5818 151.221 15.627 151.266 15.1981C151.334 15.153 151.334 15.1304 151.334 15.1078Z" fill="#0192DC"/>
<path d="M36.4004 12.2185C36.4004 9.30669 36.4004 6.66573 36.4004 4.0022C37.372 4.0022 38.2983 4.0022 39.2698 4.0022C39.2698 8.26837 39.2698 12.4894 39.2698 16.7781C38.3209 16.7781 37.372 16.7781 36.3101 16.7781C34.367 14.2275 32.3788 11.5865 30.3002 8.87782C30.3002 11.5414 30.3002 14.1372 30.3002 16.7781C29.3061 16.7781 28.3797 16.7781 27.4308 16.7781C27.4308 12.5345 27.4308 8.29094 27.4308 4.02477C28.3119 4.02477 29.1705 4.02477 30.1194 4.02477C32.1303 6.64316 34.1863 9.32927 36.4004 12.2185Z" fill="white"/>
<path d="M51.4251 11.8799C51.4251 9.26155 51.4251 6.66573 51.4251 4.0022C52.3967 4.0022 53.323 4.0022 54.2945 4.0022C54.2945 8.2458 54.2945 12.4894 54.2945 16.7781C53.3456 16.7781 52.3967 16.7781 51.3574 16.7781C49.4143 14.2275 47.4035 11.5865 45.3475 8.87782C45.3475 11.5865 45.3475 14.1597 45.3475 16.8007C44.3759 16.8007 43.4496 16.8007 42.4781 16.8007C42.4781 12.5571 42.4781 8.31351 42.4781 4.02477C43.3818 4.02477 44.263 4.02477 45.1667 4.02477C47.1776 6.64316 49.211 9.28412 51.2444 11.9025C51.2896 11.9702 51.3574 12.0379 51.4703 12.1734C51.4251 12.0154 51.4251 11.9477 51.4251 11.8799Z" fill="white"/>
<path d="M93.291 16.9587C89.3823 17.0716 86.5356 13.8438 86.5581 10.345C86.5807 6.57547 89.3598 3.64107 93.4718 3.66364C97.3353 3.68621 100.182 6.75605 100.159 10.3902C100.159 13.8212 97.1997 17.1167 93.291 16.9587ZM89.5857 10.3225C89.5857 12.6249 91.2802 14.4306 93.404 14.4306C95.5278 14.4306 97.2223 12.6023 97.1997 10.2999C97.1997 7.99752 95.5278 6.16917 93.404 6.16917C91.2802 6.16917 89.5857 7.99753 89.5857 10.3225Z" fill="white"/>
<path d="M108.497 16.9587C104.565 17.0716 101.628 13.8212 101.764 10.0516C101.877 6.7786 104.633 3.61848 108.7 3.64105C112.202 3.66362 115.568 6.48517 115.365 10.7062C115.184 13.934 112.337 17.0942 108.497 16.9587ZM112.405 10.3225C112.405 7.99751 110.756 6.19173 108.632 6.16915C106.508 6.14658 104.791 7.97494 104.814 10.3225C104.814 12.6474 106.463 14.4306 108.61 14.4306C110.733 14.4306 112.405 12.6474 112.405 10.3225Z" fill="white"/>
<path d="M117.783 16.8459C117.783 12.4895 117.783 8.26846 117.783 3.93457C120.674 4.16029 123.657 3.41541 126.391 4.83746C128.243 5.7855 129.147 7.38813 129.35 9.41964C129.531 11.3157 129.26 13.0538 128.04 14.5887C127.136 15.7173 125.939 16.2816 124.561 16.5976C122.346 17.0717 120.087 16.6879 117.783 16.8459ZM120.674 14.2501C121.691 14.2275 122.685 14.3404 123.679 14.1373C125.464 13.7761 126.481 12.5572 126.526 10.6385C126.594 8.4716 125.713 7.13984 123.905 6.64325C122.843 6.37238 121.782 6.46267 120.674 6.46267C120.674 9.08106 120.674 11.6317 120.674 14.2501Z" fill="white"/>
<path d="M135.677 24.8365C135.903 24.069 136.128 23.3241 136.377 22.5567C135.97 22.3761 135.948 23.0758 135.564 22.8275C135.993 21.9246 136.513 21.6989 137.326 22.1503C137.349 22.2858 137.394 22.4664 137.462 22.6921C138.026 22.0601 138.636 21.6538 139.472 22.1278C139.495 22.3309 139.54 22.5341 139.563 22.7824C140.241 22.2406 140.851 21.5409 141.845 22.1503C141.98 22.8952 141.415 23.5273 141.438 24.2721C141.732 24.227 141.89 23.8658 142.229 24.069C141.845 24.7913 141.235 24.9493 140.466 24.7913C140.173 24.0239 140.738 23.3467 140.738 22.5115C139.585 22.963 139.314 23.911 138.953 24.8365C138.614 24.8365 138.297 24.8365 137.936 24.8365C138.139 24.1141 138.456 23.437 138.501 22.4889C137.349 22.963 137.145 23.9561 136.739 24.8365C136.377 24.8365 136.038 24.8365 135.677 24.8365Z" fill="#01C851"/>
<path d="M111.253 24.8139C112.744 23.437 113.67 21.6764 114.936 20.1189C115.139 20.1189 115.388 20.0963 115.704 20.0963C115.704 21.5184 115.704 22.8953 115.704 24.2948C115.907 24.4076 116.065 24.4979 116.359 24.6785C115.478 25.0848 114.619 24.7462 113.716 24.9494C114.077 24.3399 115.003 24.1368 114.484 23.279C114.1 23.279 113.67 23.279 113.173 23.279C112.947 23.5725 112.609 23.8433 112.676 24.3173C112.744 24.5205 113.173 24.4979 112.993 24.8591C112.496 24.8139 111.931 24.8139 111.253 24.8139ZM114.574 21.3152C114.168 21.857 113.851 22.3084 113.49 22.805C113.896 22.805 114.213 22.805 114.574 22.805C114.574 22.331 114.574 21.9021 114.574 21.3152Z" fill="#01C851"/>
<path d="M117.579 20.164C118.076 20.164 118.573 20.164 119.093 20.164C118.89 20.8186 118.709 21.4732 118.483 22.1729C118.731 22.0827 118.935 21.9924 119.138 21.9472C120.087 21.7215 120.742 22.3987 120.471 23.3241C120.132 24.543 118.618 25.3331 117.444 24.8365C116.856 24.5882 116.901 23.9787 117.014 23.4596C117.105 23.0081 117.308 22.5792 117.444 22.1278C117.579 21.6763 117.692 21.2249 117.85 20.7057C117.85 20.5252 117.218 20.638 117.579 20.164ZM119.341 22.5792C118.957 22.3761 118.664 22.489 118.483 22.7598C118.121 23.3016 117.805 23.8433 118.008 24.4979C118.438 24.701 118.777 24.5882 118.98 24.2722C119.341 23.7756 119.59 23.2113 119.341 22.5792Z" fill="#01C851"/>
<path d="M145.369 22.0601C145.753 22.0601 146.047 22.0601 146.363 22.0601C146.137 22.8501 145.912 23.595 145.708 24.3173C146.115 24.5205 146.07 23.8885 146.454 24.069C146.273 24.6785 145.844 24.9494 145.234 24.9494C144.737 24.9494 144.624 24.6108 144.691 24.0916C144.127 24.5431 143.697 25.1525 142.861 24.8591C142.658 24.0239 143.178 23.3016 143.313 22.5116C142.884 22.3761 142.884 23.0307 142.455 22.805C142.387 22.5793 142.771 22.4664 142.748 22.2407C143.155 21.9698 143.562 21.9924 144.059 22.015C144.737 22.7598 143.81 23.4596 143.901 24.2722C144.804 23.7756 144.917 22.7824 145.369 22.0601Z" fill="#01C851"/>
<path d="M121.849 22.5115C121.443 22.4438 121.397 22.963 120.991 22.8727C121.194 22.015 121.827 21.9698 122.618 22.0375C123.273 22.7824 122.346 23.4822 122.437 24.2722C123.318 23.753 123.431 22.7598 123.905 22.015C124.244 22.015 124.538 22.015 124.877 22.015C124.651 22.805 124.425 23.5499 124.222 24.2948C124.628 24.4753 124.583 23.8433 124.967 24.0465C124.764 24.6559 124.335 24.9268 123.725 24.9268C123.228 24.9268 123.16 24.5656 123.205 24.069C122.663 24.5882 122.211 25.1299 121.375 24.8591C121.217 24.0465 121.691 23.3016 121.849 22.5115Z" fill="#01C851"/>
<path d="M129.237 24.5205C129.305 23.8433 129.757 23.3016 129.689 22.489C128.876 23.1887 128.65 24.0691 128.221 24.8365C127.927 24.8365 127.588 24.8365 127.249 24.8365C127.475 24.0691 127.724 23.3016 127.95 22.5567C127.543 22.2633 127.543 23.0984 127.159 22.805C127.633 21.9021 128.176 21.6764 128.853 22.1504C128.876 22.3084 128.899 22.5116 128.921 22.8276C129.35 22.3761 129.667 21.8795 130.277 21.9021C130.503 21.9021 130.683 22.015 130.864 22.1956C130.887 22.9179 130.412 23.5725 130.39 24.3399C130.683 24.2496 130.796 23.8208 131.158 24.0465C130.751 24.9268 129.825 25.1525 129.237 24.5205Z" fill="#01C851"/>
<path d="M135.157 21.9472C134.908 22.805 134.682 23.5047 134.479 24.227C134.773 24.4302 134.908 23.8207 135.247 24.1141C135.067 24.6785 134.615 24.9042 134.027 24.9719C133.621 25.017 133.508 24.7236 133.44 24.3399C133.191 24.5204 133.011 24.701 132.785 24.8365C132.514 24.9945 132.152 25.1073 131.926 24.8365C131.723 24.5882 131.497 24.2722 131.678 23.8884C131.881 23.4595 131.926 22.9855 132.265 22.5792C133.056 21.6086 134.14 22.3084 135.157 21.9472ZM133.801 22.3535C133.101 22.4664 132.581 23.5724 132.875 24.2496C133.485 24.0916 133.937 23.2338 133.801 22.3535Z" fill="#01C851"/>
<path d="M147.403 23.9336C147.629 23.9336 147.832 23.9336 148.081 23.9336C148.171 24.0916 148.261 24.2496 148.352 24.4076C148.216 24.9268 147.877 25.0396 147.403 24.9268C147.335 24.7913 147.245 24.6559 147.132 24.4753C147.222 24.2948 147.312 24.1142 147.403 23.9336Z" fill="#01C851"/>
<path d="M149.888 24.9268C149.798 24.7914 149.73 24.6334 149.617 24.4754C149.685 24.3173 149.775 24.1368 149.843 23.9788C150.091 23.8885 150.317 23.911 150.566 23.9562C150.634 24.0916 150.724 24.2722 150.814 24.4076C150.679 24.9494 150.34 25.0397 149.888 24.9268Z" fill="#01C851"/>
<path d="M152.08 24.4753C152.17 24.2948 152.26 24.1142 152.351 23.9562C152.577 23.9562 152.78 23.9562 153.028 23.9562C153.119 24.0916 153.209 24.2496 153.3 24.4076C153.187 24.9268 152.848 25.0396 152.373 24.9493C152.305 24.8139 152.215 24.6559 152.08 24.4753Z" fill="#01C851"/>
<path d="M151.334 15.1078C151.357 15.1305 151.334 15.1532 151.311 15.1759C151.311 15.1532 151.311 15.1305 151.334 15.1078Z" fill="#FDFCFD"/>
<path d="M55.7179 4.0022C56.7346 4.0022 57.7513 4.0022 58.8358 4.0022C59.717 5.53712 60.6207 7.07203 61.547 8.6521C62.2023 7.52348 62.8349 6.46258 63.4449 5.40168C63.7612 4.99538 63.9872 4.47622 64.2809 4.0022C66.2465 4.0022 68.2347 4.0022 70.2908 4.0022C71.1041 6.34972 71.9175 8.69724 72.7987 11.2705C73.5668 8.76496 74.2672 6.41744 75.0128 4.02477C75.9392 4.02477 76.9785 4.02477 78.1307 4.02477C78.8311 6.32715 79.5541 8.6521 80.3675 11.2479C81.2487 8.71981 82.0394 6.41743 82.8528 4.06991C83.8695 4.06991 84.9088 4.06991 86.0159 4.06991C84.5247 8.31351 83.0561 12.5797 81.565 16.8458C80.8194 16.8458 80.119 16.8458 79.3734 16.8458C78.4696 14.0017 77.5659 11.1351 76.6622 8.26837C76.617 8.24579 76.5492 8.2458 76.504 8.22322C75.6229 11.0673 74.7417 13.8889 73.838 16.8007C73.1827 16.8007 72.4597 16.8007 71.6238 16.8007C70.2004 12.7377 68.7544 8.60695 67.2632 4.36336C66.2465 6.124 65.2976 7.77177 64.3486 9.39698C64.2131 9.6227 64.1227 9.84843 63.9646 10.0516C63.1512 11.1576 62.8801 12.3765 62.993 13.7309C63.0834 14.7466 63.0156 15.7624 63.0156 16.8233C62.0441 16.8233 61.1178 16.8233 60.1236 16.8233C60.1236 15.3561 60.1236 13.8889 60.1236 12.4217C60.1236 12.0605 60.0559 11.7671 59.8525 11.4511C59.0392 10.0742 58.2484 8.67467 57.4576 7.27518C56.9605 6.41744 56.4861 5.55969 55.9664 4.70194C55.8761 4.54393 55.7179 4.43107 55.5823 4.29563C55.7405 4.20535 55.7179 4.09249 55.7179 4.0022Z" fill="white"/>
<path d="M11.9541 16.8459C13.129 14.1598 14.2587 11.5866 15.3884 9.01331C16.0662 7.43325 16.744 5.87575 17.3992 4.29569C17.5122 4.04739 17.6477 3.97968 17.8736 3.97968C18.687 3.97968 19.523 3.97968 20.3815 3.97968C22.2116 8.24584 24.0643 12.4894 25.917 16.8008C24.8551 16.8008 23.8384 16.8008 22.8216 16.8008C22.4376 15.9204 22.0535 15.0175 21.6468 14.0921C19.8619 14.0921 18.0996 14.0921 16.2695 14.0921C15.8854 14.995 15.4787 15.9204 15.072 16.8459C12.9934 16.8459 10.9148 16.8459 8.85881 16.8459C8.27138 16.8459 8.15841 16.3267 7.90988 16.0107C6.93835 14.7467 6.01202 13.4375 5.06309 12.1734C4.99531 12.0606 4.85975 11.9929 4.76937 11.88C4.27231 12.2411 3.956 12.7603 3.52672 13.2118C3.52672 14.3629 3.52672 15.5593 3.52672 16.8008C2.5552 16.8008 1.65146 16.8008 0.702525 16.8008C0.679932 12.5346 0.679932 8.29099 0.679932 4.00225C1.60627 4.00225 2.5552 4.00225 3.52672 4.00225C3.52672 5.69517 3.52672 7.34295 3.52672 9.14874C5.15346 7.36552 6.71242 5.69517 8.27138 4.00225C9.44624 4.00225 10.6211 4.00225 11.8863 4.00225C10.1692 5.9209 8.51991 7.74925 6.80279 9.64533C8.51991 12.0154 10.2144 14.4081 11.9541 16.8459ZM17.4218 11.4737C18.4837 11.4737 19.5004 11.4737 20.5623 11.4737C20.0426 10.2548 19.523 9.08102 18.9807 7.7944C18.4611 8.99073 17.9866 10.0742 17.5122 11.1577C17.4896 11.248 17.467 11.3383 17.4218 11.4737Z" fill="white"/>
<path d="M151.334 15.1078C151.492 14.9273 151.424 14.7241 151.424 14.5435C151.424 11.9026 151.424 9.23902 151.424 6.59806C151.424 5.87575 151.153 5.53716 150.385 5.53716C145.957 5.55973 141.551 5.53716 137.077 5.53716C137.077 4.7697 137.077 4.00224 137.077 3.21221C137.258 3.21221 137.439 3.18964 137.62 3.18964C142.138 3.18964 146.657 3.18964 151.176 3.18964C152.531 3.18964 153.661 4.31825 153.661 5.69517C153.661 8.96815 153.661 12.2637 153.661 15.5367C153.661 16.9136 152.644 17.9294 151.289 17.9294C147.358 17.9294 143.426 17.9294 139.495 17.9294C138.162 17.9294 137.258 17.0265 137.258 15.7173C137.258 13.5503 137.258 11.3608 137.258 9.12616C136.061 9.12616 134.976 9.12616 133.869 9.12616C133.869 8.31356 133.869 7.56867 133.869 6.77864C137.145 6.77864 140.421 6.77864 143.72 6.77864C144.398 8.33613 145.053 9.91619 145.799 11.6317C146.499 9.91619 147.132 8.33613 147.764 6.75607C148.442 6.75607 149.097 6.75607 149.843 6.75607C148.826 9.32931 147.809 11.8348 146.793 14.3629C146.092 14.3629 145.414 14.3629 144.691 14.3629C144.036 12.6249 143.381 10.8868 142.703 9.12616C141.641 9.12616 140.602 9.12616 139.472 9.12616C139.495 11.2705 139.427 13.3923 139.495 15.5818C140.06 15.5818 140.376 15.5818 140.692 15.5818C143.991 15.5818 147.29 15.5818 150.611 15.5818C150.905 15.5818 151.221 15.627 151.266 15.1981C151.334 15.153 151.334 15.1304 151.334 15.1078Z" fill="#0192DC"/>
<path d="M36.4004 12.2185C36.4004 9.30669 36.4004 6.66573 36.4004 4.0022C37.372 4.0022 38.2983 4.0022 39.2698 4.0022C39.2698 8.26837 39.2698 12.4894 39.2698 16.7781C38.3209 16.7781 37.372 16.7781 36.3101 16.7781C34.367 14.2275 32.3788 11.5865 30.3002 8.87782C30.3002 11.5414 30.3002 14.1372 30.3002 16.7781C29.3061 16.7781 28.3797 16.7781 27.4308 16.7781C27.4308 12.5345 27.4308 8.29094 27.4308 4.02477C28.3119 4.02477 29.1705 4.02477 30.1194 4.02477C32.1303 6.64316 34.1863 9.32927 36.4004 12.2185Z" fill="white"/>
<path d="M51.4251 11.8799C51.4251 9.26155 51.4251 6.66573 51.4251 4.0022C52.3967 4.0022 53.323 4.0022 54.2945 4.0022C54.2945 8.2458 54.2945 12.4894 54.2945 16.7781C53.3456 16.7781 52.3967 16.7781 51.3574 16.7781C49.4143 14.2275 47.4035 11.5865 45.3475 8.87782C45.3475 11.5865 45.3475 14.1597 45.3475 16.8007C44.3759 16.8007 43.4496 16.8007 42.4781 16.8007C42.4781 12.5571 42.4781 8.31351 42.4781 4.02477C43.3818 4.02477 44.263 4.02477 45.1667 4.02477C47.1776 6.64316 49.211 9.28412 51.2444 11.9025C51.2896 11.9702 51.3574 12.0379 51.4703 12.1734C51.4251 12.0154 51.4251 11.9477 51.4251 11.8799Z" fill="white"/>
<path d="M93.291 16.9587C89.3823 17.0716 86.5356 13.8438 86.5581 10.345C86.5807 6.57547 89.3598 3.64107 93.4718 3.66364C97.3353 3.68621 100.182 6.75605 100.159 10.3902C100.159 13.8212 97.1997 17.1167 93.291 16.9587ZM89.5857 10.3225C89.5857 12.6249 91.2802 14.4306 93.404 14.4306C95.5278 14.4306 97.2223 12.6023 97.1997 10.2999C97.1997 7.99752 95.5278 6.16917 93.404 6.16917C91.2802 6.16917 89.5857 7.99753 89.5857 10.3225Z" fill="white"/>
<path d="M108.497 16.9587C104.565 17.0716 101.628 13.8212 101.764 10.0516C101.877 6.7786 104.633 3.61848 108.7 3.64105C112.202 3.66362 115.568 6.48517 115.365 10.7062C115.184 13.934 112.337 17.0942 108.497 16.9587ZM112.405 10.3225C112.405 7.99751 110.756 6.19173 108.632 6.16915C106.508 6.14658 104.791 7.97494 104.814 10.3225C104.814 12.6474 106.463 14.4306 108.61 14.4306C110.733 14.4306 112.405 12.6474 112.405 10.3225Z" fill="white"/>
<path d="M117.783 16.8459C117.783 12.4895 117.783 8.26846 117.783 3.93457C120.674 4.16029 123.657 3.41541 126.391 4.83746C128.243 5.7855 129.147 7.38813 129.35 9.41964C129.531 11.3157 129.26 13.0538 128.04 14.5887C127.136 15.7173 125.939 16.2816 124.561 16.5976C122.346 17.0717 120.087 16.6879 117.783 16.8459ZM120.674 14.2501C121.691 14.2275 122.685 14.3404 123.679 14.1373C125.464 13.7761 126.481 12.5572 126.526 10.6385C126.594 8.4716 125.713 7.13984 123.905 6.64325C122.843 6.37238 121.782 6.46267 120.674 6.46267C120.674 9.08106 120.674 11.6317 120.674 14.2501Z" fill="white"/>
<path d="M135.677 24.8365C135.903 24.069 136.128 23.3241 136.377 22.5567C135.97 22.3761 135.948 23.0758 135.564 22.8275C135.993 21.9246 136.513 21.6989 137.326 22.1503C137.349 22.2858 137.394 22.4664 137.462 22.6921C138.026 22.0601 138.636 21.6538 139.472 22.1278C139.495 22.3309 139.54 22.5341 139.563 22.7824C140.241 22.2406 140.851 21.5409 141.845 22.1503C141.98 22.8952 141.415 23.5273 141.438 24.2721C141.732 24.227 141.89 23.8658 142.229 24.069C141.845 24.7913 141.235 24.9493 140.466 24.7913C140.173 24.0239 140.738 23.3467 140.738 22.5115C139.585 22.963 139.314 23.911 138.953 24.8365C138.614 24.8365 138.297 24.8365 137.936 24.8365C138.139 24.1141 138.456 23.437 138.501 22.4889C137.349 22.963 137.145 23.9561 136.739 24.8365C136.377 24.8365 136.038 24.8365 135.677 24.8365Z" fill="black"/>
<path d="M111.253 24.8139C112.744 23.437 113.67 21.6764 114.936 20.1189C115.139 20.1189 115.388 20.0963 115.704 20.0963C115.704 21.5184 115.704 22.8953 115.704 24.2948C115.907 24.4076 116.065 24.4979 116.359 24.6785C115.478 25.0848 114.619 24.7462 113.716 24.9494C114.077 24.3399 115.003 24.1368 114.484 23.279C114.1 23.279 113.67 23.279 113.173 23.279C112.947 23.5725 112.609 23.8433 112.676 24.3173C112.744 24.5205 113.173 24.4979 112.993 24.8591C112.496 24.8139 111.931 24.8139 111.253 24.8139ZM114.574 21.3152C114.168 21.857 113.851 22.3084 113.49 22.805C113.896 22.805 114.213 22.805 114.574 22.805C114.574 22.331 114.574 21.9021 114.574 21.3152Z" fill="black"/>
<path d="M117.579 20.164C118.076 20.164 118.573 20.164 119.093 20.164C118.89 20.8186 118.709 21.4732 118.483 22.1729C118.731 22.0827 118.935 21.9924 119.138 21.9472C120.087 21.7215 120.742 22.3987 120.471 23.3241C120.132 24.543 118.618 25.3331 117.444 24.8365C116.856 24.5882 116.901 23.9787 117.014 23.4596C117.105 23.0081 117.308 22.5792 117.444 22.1278C117.579 21.6763 117.692 21.2249 117.85 20.7057C117.85 20.5252 117.218 20.638 117.579 20.164ZM119.341 22.5792C118.957 22.3761 118.664 22.489 118.483 22.7598C118.121 23.3016 117.805 23.8433 118.008 24.4979C118.438 24.701 118.777 24.5882 118.98 24.2722C119.341 23.7756 119.59 23.2113 119.341 22.5792Z" fill="black"/>
<path d="M145.369 22.0601C145.753 22.0601 146.047 22.0601 146.363 22.0601C146.137 22.8501 145.912 23.595 145.708 24.3173C146.115 24.5205 146.07 23.8885 146.454 24.069C146.273 24.6785 145.844 24.9494 145.234 24.9494C144.737 24.9494 144.624 24.6108 144.691 24.0916C144.127 24.5431 143.697 25.1525 142.861 24.8591C142.658 24.0239 143.178 23.3016 143.313 22.5116C142.884 22.3761 142.884 23.0307 142.455 22.805C142.387 22.5793 142.771 22.4664 142.748 22.2407C143.155 21.9698 143.562 21.9924 144.059 22.015C144.737 22.7598 143.81 23.4596 143.901 24.2722C144.804 23.7756 144.917 22.7824 145.369 22.0601Z" fill="black"/>
<path d="M121.849 22.5115C121.443 22.4438 121.397 22.963 120.991 22.8727C121.194 22.015 121.827 21.9698 122.618 22.0375C123.273 22.7824 122.346 23.4822 122.437 24.2722C123.318 23.753 123.431 22.7598 123.905 22.015C124.244 22.015 124.538 22.015 124.877 22.015C124.651 22.805 124.425 23.5499 124.222 24.2948C124.628 24.4753 124.583 23.8433 124.967 24.0465C124.764 24.6559 124.335 24.9268 123.725 24.9268C123.228 24.9268 123.16 24.5656 123.205 24.069C122.663 24.5882 122.211 25.1299 121.375 24.8591C121.217 24.0465 121.691 23.3016 121.849 22.5115Z" fill="black"/>
<path d="M129.237 24.5205C129.305 23.8433 129.757 23.3016 129.689 22.489C128.876 23.1887 128.65 24.0691 128.221 24.8365C127.927 24.8365 127.588 24.8365 127.249 24.8365C127.475 24.0691 127.724 23.3016 127.95 22.5567C127.543 22.2633 127.543 23.0984 127.159 22.805C127.633 21.9021 128.176 21.6764 128.853 22.1504C128.876 22.3084 128.899 22.5116 128.921 22.8276C129.35 22.3761 129.667 21.8795 130.277 21.9021C130.503 21.9021 130.683 22.015 130.864 22.1956C130.887 22.9179 130.412 23.5725 130.39 24.3399C130.683 24.2496 130.796 23.8208 131.158 24.0465C130.751 24.9268 129.825 25.1525 129.237 24.5205Z" fill="black"/>
<path d="M135.157 21.9472C134.908 22.805 134.682 23.5047 134.479 24.227C134.773 24.4302 134.908 23.8207 135.247 24.1141C135.067 24.6785 134.615 24.9042 134.027 24.9719C133.621 25.017 133.508 24.7236 133.44 24.3399C133.191 24.5204 133.011 24.701 132.785 24.8365C132.514 24.9945 132.152 25.1073 131.926 24.8365C131.723 24.5882 131.497 24.2722 131.678 23.8884C131.881 23.4595 131.926 22.9855 132.265 22.5792C133.056 21.6086 134.14 22.3084 135.157 21.9472ZM133.801 22.3535C133.101 22.4664 132.581 23.5724 132.875 24.2496C133.485 24.0916 133.937 23.2338 133.801 22.3535Z" fill="black"/>
<path d="M147.403 23.9336C147.629 23.9336 147.832 23.9336 148.081 23.9336C148.171 24.0916 148.261 24.2496 148.352 24.4076C148.216 24.9268 147.877 25.0396 147.403 24.9268C147.335 24.7913 147.245 24.6559 147.132 24.4753C147.222 24.2948 147.312 24.1142 147.403 23.9336Z" fill="black"/>
<path d="M149.888 24.9268C149.798 24.7914 149.73 24.6334 149.617 24.4754C149.685 24.3173 149.775 24.1368 149.843 23.9788C150.091 23.8885 150.317 23.911 150.566 23.9562C150.634 24.0916 150.724 24.2722 150.814 24.4076C150.679 24.9494 150.34 25.0397 149.888 24.9268Z" fill="black"/>
<path d="M152.08 24.4753C152.17 24.2948 152.26 24.1142 152.351 23.9562C152.577 23.9562 152.78 23.9562 153.028 23.9562C153.119 24.0916 153.209 24.2496 153.3 24.4076C153.187 24.9268 152.848 25.0396 152.373 24.9493C152.305 24.8139 152.215 24.6559 152.08 24.4753Z" fill="black"/>
<path d="M151.334 15.1078C151.357 15.1305 151.334 15.1532 151.311 15.1759C151.311 15.1532 151.311 15.1305 151.334 15.1078Z" fill="#FDFCFD"/>
</svg>
